<svg width="150" height="150" viewBox="0 0 150 150" fill="none" xmlns="http://www.w3.org/2000/svg">
<path d="M140.942 128.467H9.0583C4.05557 128.467 0 124.411 0 119.408V40.1665H150V119.408C150 124.411 145.944 128.467 140.942 128.467Z" fill="#A9DBF5"/>
<path d="M140.946 40.1665V128.467C145.947 128.467 150 124.409 150 119.405V40.1665H140.946Z" fill="#88C3E0"/>
<path d="M30.4307 68.5451C29.5726 67.6873 28.1813 67.6873 27.3234 68.5451L13.7206 82.1479C12.8625 83.0063 12.8625 84.3973 13.7206 85.2554L27.1433 98.6781C27.5722 99.107 28.1347 99.3214 28.6969 99.3214C29.2591 99.3214 29.8216 99.107 30.2505 98.6781C31.1086 97.8197 31.1086 96.4287 30.2505 95.5706L18.3814 83.7015L30.4304 71.6526C31.2888 70.7945 31.2888 69.4032 30.4307 68.5451V68.5451Z" fill="#43809F"/>
<path d="M77.4961 82.1476L63.8933 68.5447C63.0352 67.6869 61.6438 67.6869 60.786 68.5447C59.9279 69.4031 59.9279 70.7941 60.786 71.6522L72.835 83.7012L60.9659 95.5702C60.1078 96.4286 60.1078 97.8196 60.9659 98.6778C61.3948 99.1067 61.9573 99.3211 62.5195 99.3211C63.0817 99.3211 63.6442 99.1067 64.0731 98.6778L77.4961 85.2551C78.3539 84.397 78.3539 83.006 77.4961 82.1476V82.1476Z" fill="#43809F"/>
<path d="M54.4374 60.3701C53.3024 59.9391 52.0342 60.5098 51.6035 61.6448L35.5189 104.019C35.0883 105.154 35.659 106.422 36.7934 106.853C37.05 106.951 37.3134 106.997 37.5727 106.997C38.4589 106.997 39.2941 106.456 39.6272 105.578L55.7118 63.204C56.1425 62.0696 55.5721 60.8007 54.4374 60.3701V60.3701Z" fill="#43809F"/>
<path d="M113.179 68.6221H98.9938C96.4936 68.6221 94.4666 66.5954 94.4666 64.0949C94.4666 61.5947 96.4933 59.5676 98.9938 59.5676H113.179C115.679 59.5676 117.706 61.5944 117.706 64.0949C117.706 66.5951 115.679 68.6221 113.179 68.6221Z" fill="#29CEF6"/>
<path d="M136.419 86.7308H98.9938C96.4936 86.7308 94.4666 84.704 94.4666 82.2035C94.4666 79.7033 96.4933 77.6763 98.9938 77.6763H136.418C138.918 77.6763 140.945 79.703 140.945 82.2035C140.946 84.7037 138.919 86.7308 136.419 86.7308Z" fill="#FFC328"/>
<path d="M125.301 104.839H98.9938C96.4936 104.839 94.4666 102.813 94.4666 100.312C94.4666 97.812 96.4933 95.7849 98.9938 95.7849H125.301C127.801 95.7849 129.828 97.8117 129.828 100.312C129.828 102.812 127.801 104.839 125.301 104.839Z" fill="#F78E36"/>
<path d="M150 43.2823H0V30.5915C0 25.5888 4.05557 21.5332 9.0583 21.5332H140.942C145.944 21.5332 150 25.5888 150 30.5915V43.2823Z" fill="#43809F"/>
<path d="M140.946 21.5332V43.2823H150V30.5953C150 25.5905 145.946 21.5332 140.946 21.5332V21.5332Z" fill="#3A7190"/>
<path d="M14.4887 37.0837C16.9891 37.0837 19.016 35.0568 19.016 32.5564C19.016 30.0561 16.9891 28.0292 14.4887 28.0292C11.9884 28.0292 9.96149 30.0561 9.96149 32.5564C9.96149 35.0568 11.9884 37.0837 14.4887 37.0837Z" fill="#29CEF6"/>
<path d="M32.042 37.0837C34.5423 37.0837 36.5693 35.0568 36.5693 32.5564C36.5693 30.0561 34.5423 28.0292 32.042 28.0292C29.5417 28.0292 27.5148 30.0561 27.5148 32.5564C27.5148 35.0568 29.5417 37.0837 32.042 37.0837Z" fill="#F3F3F3"/>
<path d="M49.5952 37.0837C52.0955 37.0837 54.1224 35.0568 54.1224 32.5564C54.1224 30.0561 52.0955 28.0292 49.5952 28.0292C47.0949 28.0292 45.0679 30.0561 45.0679 32.5564C45.0679 35.0568 47.0949 37.0837 49.5952 37.0837Z" fill="#F78E36"/>
</svg>
