<svg width="150" height="150" viewBox="0 0 150 150" fill="none" xmlns="http://www.w3.org/2000/svg">
<path d="M92.5512 147.803H57.4489L63.2186 128.952H86.7815L92.5512 147.803Z" fill="#90ABBD"/>
<path d="M150 31.5233V115.476C150 124.119 142.983 131.15 134.361 131.15H15.6387C7.0166 131.15 0 124.119 0 115.476V31.5233C0 22.8807 7.0166 15.8495 15.6387 15.8495H134.361C142.983 15.8495 150 22.8807 150 31.5233V31.5233Z" fill="#56788B"/>
<path d="M150 31.5233V115.476C150 124.119 142.983 131.15 134.361 131.15H128.502C137.124 131.15 144.141 124.119 144.141 115.476V31.5233C144.141 22.8807 137.124 15.8495 128.502 15.8495H134.361C142.983 15.8495 150 22.8807 150 31.5233V31.5233Z" fill="#415E6F"/>
<path d="M141.234 31.16V106.758C141.234 110.596 138.117 113.719 134.285 113.719H15.7148C11.8828 113.719 8.76562 110.596 8.76562 106.758V31.16C8.76562 27.3221 11.8828 24.1991 15.7148 24.1991H134.285C138.117 24.1991 141.234 27.3221 141.234 31.16V31.16Z" fill="#D9F0F4"/>
<path d="M141.234 31.16V106.758C141.234 110.596 138.117 113.719 134.285 113.719H128.426C132.258 113.719 135.375 110.596 135.375 106.758V31.16C135.375 27.3221 132.258 24.1991 128.426 24.1991H134.285C138.117 24.1991 141.234 27.3221 141.234 31.16V31.16Z" fill="#BAE1E5"/>
<path d="M103.921 145.605H46.079C44.8655 145.605 43.8817 146.589 43.8817 147.803C43.8817 149.016 44.8655 150 46.079 150H103.921C105.134 150 106.118 149.016 106.118 147.803C106.118 146.589 105.134 145.605 103.921 145.605Z" fill="#56788B"/>
<path d="M76.4385 6.59473V33.2139C76.4385 36.8496 73.4795 39.8086 69.8437 39.8086H56.751L52.7959 45.5039C52.3857 46.0957 51.7119 46.4502 50.9912 46.4502C50.2705 46.4502 49.5967 46.0957 49.1865 45.5039L45.2344 39.8086H32.1387C28.5029 39.8086 25.5439 36.8496 25.5439 33.2139V6.59473C25.5439 2.95898 28.5029 0 32.1387 0H69.8437C73.4795 0 76.4385 2.95898 76.4385 6.59473V6.59473Z" fill="#FF6B81"/>
<path d="M76.4384 6.59473V33.2139C76.4384 36.8496 73.4795 39.8086 69.8437 39.8086H63.9843C67.6201 39.8086 70.5791 36.8496 70.5791 33.2139V6.59473C70.5791 2.95898 67.6201 0 63.9843 0H69.8437C73.4795 0 76.4384 2.95898 76.4384 6.59473V6.59473Z" fill="#ED2061"/>
<path d="M27.7424 120.392H18.7661C17.5526 120.392 16.5688 121.376 16.5688 122.589C16.5688 123.803 17.5526 124.786 18.7661 124.786H27.7424C28.9559 124.786 29.9396 123.803 29.9396 122.589C29.9396 121.376 28.9559 120.392 27.7424 120.392Z" fill="#415E6F"/>
<path d="M45.3205 120.392H36.3442C35.1308 120.392 34.147 121.376 34.147 122.589C34.147 123.803 35.1308 124.786 36.3442 124.786H45.3205C46.534 124.786 47.5178 123.803 47.5178 122.589C47.5178 121.376 46.534 120.392 45.3205 120.392Z" fill="#415E6F"/>
<path d="M59.2737 12.7746C56.9918 10.4927 53.2766 10.4944 50.9921 12.7793C49.8855 11.673 48.4151 11.0631 46.8512 11.0619H46.8466C45.2839 11.0619 43.8146 11.6701 42.7101 12.7749C40.4282 15.0571 40.4302 18.7722 42.7148 21.0568L49.9561 28.2981C50.2424 28.5841 50.6171 28.727 50.9921 28.727C51.3671 28.727 51.7418 28.5841 52.028 28.2981L59.2693 21.0568C61.5536 18.7717 61.5556 15.0565 59.2737 12.7746V12.7746Z" fill="white"/>
<path d="M27.7424 87.715H37.1593C38.3728 87.715 39.3566 86.7312 39.3566 85.5177C39.3566 84.3042 38.3728 83.3204 37.1593 83.3204H27.7424C26.5289 83.3204 25.5451 84.3042 25.5451 85.5177C25.5451 86.7312 26.5289 87.715 27.7424 87.715V87.715Z" fill="#90ABBD"/>
<path d="M43.0099 93.5743H27.7424C26.5289 93.5743 25.5451 94.5581 25.5451 95.7716C25.5451 96.9851 26.5289 97.9689 27.7424 97.9689H43.0099C44.2234 97.9689 45.2071 96.9851 45.2071 95.7716C45.2071 94.5581 44.2234 93.5743 43.0099 93.5743Z" fill="#90ABBD"/>
<path d="M123.199 50.5416H113.782C112.568 50.5416 111.584 51.5254 111.584 52.7389C111.584 53.9524 112.568 54.9362 113.782 54.9362H123.199C124.412 54.9362 125.396 53.9524 125.396 52.7389C125.396 51.5254 124.412 50.5416 123.199 50.5416V50.5416Z" fill="#90ABBD"/>
<path d="M125.396 42.485C125.396 41.2715 124.412 40.2877 123.199 40.2877H107.931C106.718 40.2877 105.734 41.2715 105.734 42.485C105.734 43.6985 106.718 44.6823 107.931 44.6823H123.199C124.412 44.6823 125.396 43.6985 125.396 42.485Z" fill="#90ABBD"/>
<path d="M123.006 111.522C123.006 116.745 118.761 120.993 113.543 120.993H72.7676C67.5498 120.993 63.3047 116.745 63.3047 111.522C63.3047 106.298 67.5498 102.047 72.7676 102.047H73.5908L78.5332 95.2208C78.9492 94.6495 79.6084 94.3126 80.3145 94.3126C81.0176 94.3126 81.6797 94.6495 82.0928 95.2208L87.0381 102.047H113.543C118.761 102.047 123.006 106.298 123.006 111.522V111.522Z" fill="#FBDF63"/>
<path d="M123.006 111.521C123.006 116.745 118.761 120.993 113.543 120.993H107.684C112.901 120.993 117.146 116.745 117.146 111.521C117.146 106.298 112.901 102.047 107.684 102.047H113.543C118.761 102.047 123.006 106.298 123.006 111.521V111.521Z" fill="#FFA402"/>
<path d="M61.8369 65.2073H55.5744C54.361 65.2073 53.3772 66.1911 53.3772 67.4045C53.3772 68.618 54.361 69.6018 55.5744 69.6018H61.8369C63.0504 69.6018 64.0342 68.618 64.0342 67.4045C64.0342 66.1911 63.0504 65.2073 61.8369 65.2073Z" fill="#56788B"/>
<path d="M67.2712 72.4414C66.0577 72.4414 65.0739 73.4252 65.0739 74.6387V85.2245C65.0739 86.438 66.0577 87.4218 67.2712 87.4218C68.4847 87.4218 69.4685 86.438 69.4685 85.2245V74.6387C69.4685 73.4252 68.4847 72.4414 67.2712 72.4414V72.4414Z" fill="#56788B"/>
<path d="M64.5035 58.3257C61.7306 58.699 59.6397 61.0922 59.6397 63.8924V70.9164C59.6397 73.7166 61.7306 76.1098 64.5035 76.4831L88.7195 79.9131V55.1028L64.5035 58.3257Z" fill="#4DD4F7"/>
<path d="M91.3497 57.1506V77.6584C91.3497 80.0854 89.3851 82.053 86.9617 82.053C84.5382 82.053 82.5736 80.0854 82.5736 77.6584V57.1506C82.5736 54.7237 84.5382 52.7561 86.9617 52.7561C89.3851 52.7561 91.3497 54.7237 91.3497 57.1506Z" fill="#56788B"/>
</svg>
