<svg width="150" height="150" viewBox="0 0 150 150" fill="none" xmlns="http://www.w3.org/2000/svg">
<path d="M140.625 96.0938H46.875C44.286 96.0938 42.1875 93.9952 42.1875 91.4062V16.4062C42.1875 13.8173 44.286 11.7188 46.875 11.7188H140.625C143.214 11.7188 145.312 13.8173 145.312 16.4062V91.4062C145.312 93.9952 143.214 96.0938 140.625 96.0938Z" fill="#D7E6F0"/>
<path d="M145.312 21.0938H42.1875V16.4062C42.1875 13.8173 44.286 11.7188 46.875 11.7188H140.625C143.214 11.7188 145.312 13.8173 145.312 16.4062V21.0938Z" fill="#555A6E"/>
<path d="M51.5625 18.75C52.8569 18.75 53.9062 17.7007 53.9062 16.4062C53.9062 15.1118 52.8569 14.0625 51.5625 14.0625C50.2681 14.0625 49.2188 15.1118 49.2188 16.4062C49.2188 17.7007 50.2681 18.75 51.5625 18.75Z" fill="#289BC3"/>
<path d="M60.9375 18.75C62.2319 18.75 63.2812 17.7007 63.2812 16.4062C63.2812 15.1118 62.2319 14.0625 60.9375 14.0625C59.6431 14.0625 58.5938 15.1118 58.5938 16.4062C58.5938 17.7007 59.6431 18.75 60.9375 18.75Z" fill="#FF6E91"/>
<path d="M70.3125 18.75C71.6069 18.75 72.6562 17.7007 72.6562 16.4062C72.6562 15.1118 71.6069 14.0625 70.3125 14.0625C69.0181 14.0625 67.9688 15.1118 67.9688 16.4062C67.9688 17.7007 69.0181 18.75 70.3125 18.75Z" fill="#D7E6F0"/>
<path d="M133.594 58.5938H53.1249C51.8305 58.5938 50.7811 57.5443 50.7811 56.25V32.8125C50.7811 31.5182 51.8305 30.4688 53.1249 30.4688H133.594C134.888 30.4688 135.937 31.5182 135.937 32.8125V56.25C135.937 57.5443 134.888 58.5938 133.594 58.5938Z" fill="#A5C3DC"/>
<path d="M82.0312 86.7188H53.1249C51.8305 86.7188 50.7811 85.6693 50.7811 84.375V65.625C50.7811 64.3307 51.8305 63.2812 53.1249 63.2812H82.0312C83.3256 63.2812 84.375 64.3307 84.375 65.625V84.375C84.375 85.6693 83.3256 86.7188 82.0312 86.7188Z" fill="#A5C3DC"/>
<path d="M133.594 67.9688H90.6249C89.3305 67.9688 88.2811 66.9193 88.2811 65.625C88.2811 64.3307 89.3305 63.2812 90.6249 63.2812H133.594C134.888 63.2812 135.937 64.3307 135.937 65.625C135.937 66.9193 134.888 67.9688 133.594 67.9688Z" fill="#A5C3DC"/>
<path d="M133.594 77.3438H90.6249C89.3305 77.3438 88.2811 76.2943 88.2811 75C88.2811 73.7057 89.3305 72.6562 90.6249 72.6562H133.594C134.888 72.6562 135.937 73.7057 135.937 75C135.937 76.2943 134.888 77.3438 133.594 77.3438Z" fill="#A5C3DC"/>
<path d="M133.594 86.7188H90.6249C89.3305 86.7188 88.2811 85.6693 88.2811 84.375C88.2811 83.0807 89.3305 82.0312 90.6249 82.0312H133.594C134.888 82.0312 135.937 83.0807 135.937 84.375C135.937 85.6693 134.888 86.7188 133.594 86.7188Z" fill="#A5C3DC"/>
<path d="M112.5 119.531C125.444 119.531 135.938 109.038 135.938 96.0938C135.938 83.1496 125.444 72.6562 112.5 72.6562C99.5558 72.6562 89.0625 83.1496 89.0625 96.0938C89.0625 109.038 99.5558 119.531 112.5 119.531Z" fill="#289BC3"/>
<path d="M112.5 107.812C111.3 107.812 110.101 107.355 109.186 106.439L99.8107 97.0643C97.9799 95.2339 97.9799 92.2658 99.8107 90.4353C101.641 88.6049 104.609 88.6049 106.44 90.4353L112.5 96.496L132.623 76.3729C134.454 74.5424 137.422 74.5424 139.252 76.3729C141.083 78.2033 141.083 81.1714 139.252 83.0018L115.815 106.439C114.899 107.355 113.7 107.812 112.5 107.812Z" fill="#1EF0F0"/>
<path d="M42.1875 138.281C44.7763 138.281 46.875 136.183 46.875 133.594C46.875 131.005 44.7763 128.906 42.1875 128.906C39.5987 128.906 37.5 131.005 37.5 133.594C37.5 136.183 39.5987 138.281 42.1875 138.281Z" fill="#D7E6F0"/>
<path d="M42.1875 128.906V138.281C44.7765 138.281 46.875 136.183 46.875 133.594C46.875 131.005 44.7765 128.906 42.1875 128.906Z" fill="#A5C3DC"/>
<path d="M46.875 100.781H37.5C19.3781 100.781 4.6875 86.0906 4.6875 67.9688C4.6875 49.8469 19.3781 35.1562 37.5 35.1562H46.875C64.9969 35.1562 79.6875 49.8469 79.6875 67.9688C79.6875 86.0906 64.9969 100.781 46.875 100.781Z" fill="#E64178"/>
<path d="M37.5 100.781C55.6218 100.781 70.3125 86.0906 70.3125 67.9688C70.3125 49.8469 55.6218 35.1562 37.5 35.1562C19.3782 35.1562 4.6875 49.8469 4.6875 67.9688C4.6875 86.0906 19.3782 100.781 37.5 100.781Z" fill="#FF6E91"/>
<path d="M37.5 90.6249C50.0126 90.6249 60.1561 80.4814 60.1561 67.9688C60.1561 55.4561 50.0126 45.3126 37.5 45.3126C24.9873 45.3126 14.8438 55.4561 14.8438 67.9688C14.8438 80.4814 24.9873 90.6249 37.5 90.6249Z" fill="#D7E6F0"/>
<path d="M28.125 63.2812C30.7138 63.2812 32.8125 61.1826 32.8125 58.5938C32.8125 56.0049 30.7138 53.9062 28.125 53.9062C25.5362 53.9062 23.4375 56.0049 23.4375 58.5938C23.4375 61.1826 25.5362 63.2812 28.125 63.2812Z" fill="white"/>
<path d="M37.5 100.781H46.875V105.469H37.5V100.781Z" fill="#D7E6F0"/>
<path d="M37.5 100.781V103.125H39.8438C41.1381 103.125 42.1875 104.174 42.1875 105.469H46.875V100.781H37.5Z" fill="#A5C3DC"/>
<path d="M46.875 133.594H37.5C36.2057 133.594 35.1562 132.544 35.1562 131.25V107.812C35.1562 106.518 36.2057 105.469 37.5 105.469H46.875C48.1693 105.469 49.2188 106.518 49.2188 107.812V131.25C49.2188 132.544 48.1693 133.594 46.875 133.594Z" fill="#FF6E91"/>
<path d="M46.875 133.594H42.1875V105.469H46.875C48.1693 105.469 49.2188 106.518 49.2188 107.812V131.25C49.2188 132.544 48.1693 133.594 46.875 133.594Z" fill="#E64178"/>
</svg>
