<svg width="150" height="150" viewBox="0 0 150 150" fill="none" xmlns="http://www.w3.org/2000/svg">
<path d="M51.0384 150H41.9241C39.6905 150 37.8803 148.189 37.8803 145.956V136.749H55.0825V145.956C55.0822 148.189 53.2717 150 51.0384 150V150Z" fill="#A78CD6"/>
<path d="M117.139 150H126.253C128.486 150 130.297 148.189 130.297 145.956V136.749H113.095V145.956C113.095 148.189 114.906 150 117.139 150Z" fill="#A78CD6"/>
<path d="M130.297 138.862H37.88C32.2787 138.862 27.738 134.321 27.738 128.72V103.981C27.738 98.3801 32.2787 93.8394 37.88 93.8394H130.297C135.898 93.8394 140.439 98.3801 140.439 103.981V128.72C140.439 134.321 135.898 138.862 130.297 138.862Z" fill="#475A99"/>
<path d="M95.4246 123.222C99.2197 123.222 102.296 120.146 102.296 116.35C102.296 112.555 99.2197 109.479 95.4246 109.479C91.6295 109.479 88.553 112.555 88.553 116.35C88.553 120.146 91.6295 123.222 95.4246 123.222Z" fill="#8EE2E1"/>
<path d="M121.08 123.222C124.876 123.222 127.952 120.146 127.952 116.35C127.952 112.555 124.876 109.479 121.08 109.479C117.285 109.479 114.209 112.555 114.209 116.35C114.209 120.146 117.285 123.222 121.08 123.222Z" fill="#F5EA72"/>
<path d="M46.6125 123.769C45.399 123.769 44.4152 122.786 44.4152 121.572V111.129C44.4152 109.915 45.399 108.932 46.6125 108.932C47.826 108.932 48.8098 109.915 48.8098 111.129V121.572C48.8098 122.785 47.826 123.769 46.6125 123.769Z" fill="#EFEDFF"/>
<path d="M59.4689 123.769C58.2554 123.769 57.2716 122.786 57.2716 121.572V111.129C57.2716 109.915 58.2554 108.932 59.4689 108.932C60.6823 108.932 61.6661 109.915 61.6661 111.129V121.572C61.6661 122.785 60.6823 123.769 59.4689 123.769Z" fill="#EFEDFF"/>
<path d="M72.3255 123.769C71.112 123.769 70.1282 122.786 70.1282 121.572V111.129C70.1282 109.915 71.112 108.932 72.3255 108.932C73.539 108.932 74.5228 109.915 74.5228 111.129V121.572C74.5228 122.785 73.539 123.769 72.3255 123.769Z" fill="#EFEDFF"/>
<path d="M130.297 93.8393H37.88C32.2787 93.8393 27.738 89.2986 27.738 83.6973V58.959C27.738 53.3577 32.2787 48.817 37.88 48.817H130.297C135.898 48.817 140.439 53.3577 140.439 58.959V83.6973C140.439 89.2986 135.898 93.8393 130.297 93.8393Z" fill="#6171A3"/>
<path d="M37.8803 48.8173C32.279 48.8173 27.7383 53.358 27.7383 58.959V62.1582C28.2363 62.184 28.7376 62.1975 29.2418 62.1975H83.8245C94.0248 62.1975 103.041 56.8417 108.145 48.817H37.8803V48.8173Z" fill="#475A99"/>
<path d="M95.4246 78.1998C99.2197 78.1998 102.296 75.1233 102.296 71.3283C102.296 67.5332 99.2197 64.4567 95.4246 64.4567C91.6295 64.4567 88.553 67.5332 88.553 71.3283C88.553 75.1233 91.6295 78.1998 95.4246 78.1998Z" fill="#F5EA72"/>
<path d="M121.08 78.1998C124.876 78.1998 127.952 75.1233 127.952 71.3283C127.952 67.5332 124.876 64.4567 121.08 64.4567C117.285 64.4567 114.209 67.5332 114.209 71.3283C114.209 75.1233 117.285 78.1998 121.08 78.1998Z" fill="#8EE2E1"/>
<path d="M46.6125 78.7471C45.399 78.7471 44.4152 77.7636 44.4152 76.5498V66.1069C44.4152 64.8932 45.399 63.9097 46.6125 63.9097C47.826 63.9097 48.8098 64.8932 48.8098 66.1069V76.5498C48.8098 77.7636 47.826 78.7471 46.6125 78.7471Z" fill="#EFEDFF"/>
<path d="M59.4689 78.7471C58.2554 78.7471 57.2716 77.7636 57.2716 76.5498V66.1069C57.2716 64.8932 58.2554 63.9097 59.4689 63.9097C60.6823 63.9097 61.6661 64.8932 61.6661 66.1069V76.5498C61.6661 77.7636 60.6823 78.7471 59.4689 78.7471Z" fill="#EFEDFF"/>
<path d="M72.3255 78.7471C71.112 78.7471 70.1282 77.7636 70.1282 76.5498V66.1069C70.1282 64.8932 71.112 63.9097 72.3255 63.9097C73.539 63.9097 74.5228 64.8932 74.5228 66.1069V76.5498C74.5228 77.7636 73.539 78.7471 72.3255 78.7471Z" fill="#EFEDFF"/>
<path d="M79.0922 14.8313C77.6839 15.2051 76.2343 14.439 75.7031 13.0819C72.7058 5.42402 65.2532 0 56.533 0C54.5156 0 52.5674 0.293555 50.7249 0.834668C39.7975 11.9795 38.3502 45.9252 64.5513 53.1434H83.8242C94.5299 53.1434 103.394 44.5887 103.504 33.8836C103.638 20.7416 91.1634 11.6276 79.0922 14.8313V14.8313Z" fill="#EFEDFF"/>
<path d="M50.7249 0.834717C44.6042 2.63267 39.6668 7.19565 37.3626 13.082C36.8314 14.4387 35.3815 15.2048 33.9732 14.831C21.9117 11.6306 9.43711 20.7261 9.56192 33.8681C9.66358 44.5793 18.53 53.1431 29.2418 53.1431H64.5513C46.2407 45.7035 45.0416 11.9215 50.7249 0.834717V0.834717Z" fill="#D4D4FF"/>
<path d="M63.1043 39.0114C62.5421 39.0114 61.9796 38.7969 61.5507 38.368C60.2104 37.0277 58.4285 36.2894 56.5333 36.2894C54.6381 36.2894 52.8563 37.0277 51.5159 38.3677C50.6578 39.2261 49.2665 39.2259 48.4087 38.368C47.5506 37.5099 47.5506 36.1186 48.4087 35.2605C50.5787 33.0902 53.4642 31.8949 56.5333 31.8949C59.6025 31.8949 62.4879 33.0902 64.6582 35.2602C65.5163 36.1186 65.5163 37.5096 64.6582 38.3677C64.2287 38.7969 63.6665 39.0114 63.1043 39.0114Z" fill="#A78CD6"/>
<path d="M71.4598 30.656C70.8976 30.656 70.3351 30.4415 69.9062 30.0123C66.334 26.4404 61.5847 24.4731 56.533 24.4731C51.4814 24.4731 46.732 26.4404 43.1599 30.0126C42.3018 30.8704 40.9105 30.8704 40.0526 30.0126C39.1945 29.1542 39.1945 27.7632 40.0526 26.9051C44.4548 22.5032 50.3077 20.0786 56.533 20.0786C62.7586 20.0786 68.6115 22.5029 73.0134 26.9054C73.8715 27.7635 73.8715 29.1545 73.0134 30.0126C72.5845 30.4412 72.022 30.656 71.4598 30.656V30.656Z" fill="#A78CD6"/>
</svg>
