<svg width="150" height="150" viewBox="0 0 150 150" fill="none" xmlns="http://www.w3.org/2000/svg">
<path d="M88.6363 13.6365H136.364C143.895 13.6365 150 19.7418 150 27.273V109.091C150 116.324 147.127 123.261 142.012 128.376C136.897 133.491 129.96 136.364 122.727 136.364H88.6363V13.6365Z" fill="#28006E"/>
<path d="M109.091 109.091L27.2726 27.2726C32.6976 21.8477 40.0551 18.7999 47.7272 18.7999C55.3993 18.7999 62.7568 21.8477 68.1818 27.2726L136.364 95.4543H109.091V109.091V109.091Z" fill="#F57C04"/>
<path d="M30.6809 23.8656L30.6832 23.8634C32.5653 21.9812 35.6169 21.9812 37.499 23.8634L80.4088 66.7729C82.291 68.655 82.291 71.7066 80.4088 73.5887L80.4066 73.591C78.5244 75.4731 75.4729 75.4731 73.5907 73.591L30.6809 30.6818C28.7988 28.7996 28.7988 25.7481 30.6809 23.8656Z" fill="#DA5D00"/>
<path d="M88.6376 75.0001C92.4031 71.2345 98.5085 71.2345 102.274 75.0001L113.086 85.8116C116.851 89.5771 116.851 95.6825 113.086 99.4481C109.32 103.214 103.215 103.214 99.4491 99.4481L88.6376 88.6366C84.872 84.871 84.872 78.7656 88.6376 75.0001Z" fill="#E15E00"/>
<path d="M104.831 99.3766C103.175 102.348 102.295 105.689 102.273 109.091C102.274 116.89 106.711 124.01 113.712 127.448C120.714 130.886 129.06 130.042 135.232 125.274C141.405 120.506 144.328 112.642 142.77 105C142.729 104.797 142.641 104.613 142.594 104.412C140.689 96.1499 133.861 89.9352 125.456 88.8147C117.052 87.6942 108.834 91.9027 104.831 99.3766ZM109.091 109.091C109.091 103.576 112.413 98.6031 117.509 96.4925C122.604 94.3818 128.47 95.5484 132.37 99.4485C136.27 103.349 137.436 109.214 135.326 114.309C133.215 119.405 128.243 122.727 122.727 122.727C119.101 122.762 115.612 121.336 113.047 118.771C110.482 116.207 109.057 112.718 109.091 109.091Z" fill="#D22C49"/>
<path d="M95.4547 6.81808C95.4547 5.00977 94.7363 3.27561 93.4578 1.99688C92.1788 0.718466 90.4446 0 88.6363 0H20.4546V122.727C20.4546 130.258 26.5599 136.364 34.091 136.364H115.909H122.727C107.665 136.364 95.4547 124.153 95.4547 109.091V6.81808Z" fill="#4A19A0"/>
<path d="M81.8183 6.81836C85.5841 6.81836 88.6367 9.87088 88.6367 13.6364V129.545C88.6367 133.31 85.5841 136.363 81.8186 136.363H81.8183C78.0527 136.363 75.0002 133.31 75.0002 129.545V13.6364C75.0002 9.87088 78.0527 6.81836 81.8183 6.81836Z" fill="#2B0065"/>
<path d="M81.8182 0H6.81808C5.00977 0 3.27561 0.718147 1.99688 1.99688C0.718147 3.27561 0 5.00977 0 6.81808V143.182C0 146.947 3.05252 150 6.81808 150V146.591C6.8168 145.372 7.46655 144.245 8.52156 143.636C9.57657 143.026 10.8774 143.026 11.9327 143.636C12.988 144.246 13.6374 145.372 13.6362 146.591V150H68.1818V146.591C68.1805 145.372 68.8302 144.245 69.8852 143.636C70.9406 143.026 72.241 143.026 73.2964 143.636C74.3517 144.246 75.0011 145.372 74.9998 146.591V150C78.7654 150 81.8179 146.947 81.8179 143.182V6.81808C81.8179 5.00977 82.5361 3.27561 83.8148 1.99688C85.0935 0.718147 86.828 0 88.6363 0H81.8182ZM13.6365 126.137C13.6378 127.355 12.988 128.482 11.933 129.092C10.8777 129.701 9.57721 129.701 8.52188 129.092C7.46655 128.482 6.81712 127.355 6.8184 126.137V119.318C6.81712 118.1 7.46687 116.973 8.52188 116.363C9.57721 115.754 10.8777 115.754 11.933 116.363C12.9883 116.973 13.6378 118.1 13.6365 119.318V126.137ZM13.6365 98.8636C13.6346 100.745 12.1088 102.27 10.2273 102.27C8.34578 102.27 6.82 100.745 6.81808 98.8636V92.0455C6.82 90.164 8.34578 88.6398 10.2273 88.6398C12.1088 88.6398 13.6346 90.164 13.6365 92.0455V98.8636ZM13.6365 71.591C13.6378 72.8096 12.988 73.9365 11.933 74.546C10.8777 75.1558 9.57721 75.1558 8.52188 74.546C7.46655 73.9362 6.81712 72.8096 6.81808 71.591V64.7729C6.8168 63.5542 7.46655 62.4273 8.52156 61.8178C9.57657 61.2084 10.8774 61.208 11.9327 61.8178C12.988 62.4276 13.6374 63.5542 13.6362 64.7729V71.591H13.6365ZM13.6365 44.3183C13.6378 45.537 12.988 46.6639 11.933 47.2734C10.8777 47.8832 9.57721 47.8832 8.52188 47.2734C7.46655 46.6636 6.81712 45.537 6.8184 44.3183V37.4999C6.81712 36.2813 7.46687 35.1544 8.52188 34.5449C9.57689 33.9354 10.8777 33.9351 11.933 34.5449C12.9883 35.1547 13.6378 36.2813 13.6365 37.4999V44.3183ZM13.6365 17.0454C13.6346 18.9269 12.1088 20.4514 10.2273 20.4514C8.34578 20.4514 6.82 18.9269 6.81808 17.0454V10.2273C6.82 8.34578 8.34578 6.8216 10.2273 6.8216C12.1088 6.8216 13.6346 8.34578 13.6365 10.2273V17.0454ZM75.0002 126.137C75.0002 128.019 73.4737 129.546 71.591 129.546C69.7082 129.546 68.1818 128.019 68.1818 126.137V119.318C68.1805 118.1 68.8302 116.973 69.8852 116.363C70.9406 115.754 72.241 115.754 73.2964 116.363C74.3517 116.973 75.0011 118.1 74.9998 119.318V126.137H75.0002ZM75.0002 98.8636C74.9982 100.745 73.4725 102.269 71.591 102.269C69.7095 102.269 68.1837 100.745 68.1818 98.8636V92.0455C68.1837 90.164 69.7095 88.6398 71.591 88.6398C73.4725 88.6398 74.9982 90.164 75.0002 92.0455V98.8636ZM75.0002 71.591C75.0014 72.8096 74.3517 73.9365 73.2967 74.546C72.2414 75.1558 70.9409 75.1558 69.8856 74.546C68.8302 73.9362 68.1808 72.8096 68.1821 71.591V64.7729C68.1808 63.5542 68.8306 62.4273 69.8856 61.8178C70.9409 61.208 72.2414 61.208 73.2967 61.8178C74.352 62.4276 75.0014 63.5542 75.0002 64.7729V71.591ZM75.0002 44.3183C75.0014 45.537 74.3517 46.6639 73.2967 47.2734C72.2414 47.8832 70.9409 47.8832 69.8856 47.2734C68.8302 46.6636 68.1808 45.537 68.1821 44.3183V37.4999C68.1808 36.2813 68.8306 35.1544 69.8856 34.5449C70.9409 33.9351 72.2414 33.9351 73.2967 34.5449C74.352 35.1547 75.0014 36.2813 75.0002 37.4999V44.3183ZM75.0002 17.0454C75.0002 18.9281 73.4737 20.4546 71.591 20.4546C69.7082 20.4546 68.1818 18.9281 68.1818 17.0454V10.2273C68.1818 8.3445 69.7082 6.81808 71.591 6.81808C73.4737 6.81808 75.0002 8.3445 75.0002 10.2273V17.0454Z" fill="#724AC0"/>
<path d="M95.4547 49.724C94.1756 49.7224 92.9487 50.2306 92.0455 51.1363L23.8638 119.318C22.6457 120.536 22.1702 122.311 22.616 123.975C23.0619 125.639 24.3614 126.938 26.0252 127.384C27.6891 127.83 29.4641 127.354 30.6822 126.136L95.4547 61.3636V49.724Z" fill="#28006E"/>
<path d="M27.2726 61.3627H54.5456C58.3112 61.3627 61.3637 64.4152 61.3637 68.1808V115.908C61.3637 119.674 58.3112 122.726 54.5456 122.726H27.2726C23.5071 122.726 20.4546 119.674 20.4546 115.908V68.1808C20.4546 64.4152 23.5071 61.3627 27.2726 61.3627Z" fill="#5628B4"/>
<path d="M54.5456 136.364H27.2726C23.5071 136.364 20.4546 139.416 20.4546 143.182V150H61.3637V143.182C61.3637 139.416 58.3112 136.364 54.5456 136.364Z" fill="#5628B4"/>
<path d="M20.4546 0H61.3637V40.9091C61.3637 42.7174 60.6452 44.4516 59.3668 45.7303C58.0884 47.009 56.3539 47.7272 54.5456 47.7272H27.2726C23.5071 47.7272 20.4546 44.6747 20.4546 40.9091V0Z" fill="#5628B4"/>
<path d="M81.8182 61.3636L75.0001 68.1817V74.9998H68.1821L23.8638 119.318C22.6457 120.536 22.1702 122.311 22.616 123.975C23.0619 125.639 24.3614 126.938 26.0252 127.384C27.6891 127.83 29.4641 127.355 30.6822 126.137L81.8185 75.0001V61.3636H81.8182Z" fill="#4A19A0"/>
<path d="M27.2726 122.727L109.091 40.9092V54.5457H136.364L68.1818 122.727C62.7568 128.152 55.3993 131.2 47.7272 131.2C40.0551 131.2 32.6976 128.152 27.2726 122.727Z" fill="#F7B236"/>
<path d="M62.7757 114.497L83.8151 93.4575C87.5807 89.6919 87.5807 83.5866 83.8151 79.821C82.0068 78.0127 80.9908 75.5601 80.9908 73.0029C80.9908 70.4455 82.0068 67.9932 83.8151 66.1849L100.86 49.1395C102.743 47.2567 105.796 47.2567 107.679 49.1395L121.315 62.776C123.198 64.6588 123.198 67.7113 121.315 69.5941L69.5938 121.315C67.711 123.198 64.6585 123.198 62.7757 121.315C61.8715 120.411 61.3637 119.185 61.3637 117.906C61.3637 116.627 61.8715 115.401 62.7757 114.497Z" fill="#F69C11"/>
<path d="M95.4547 81.8183C99.2203 81.8183 102.273 78.7657 102.273 75.0002C102.273 71.2347 99.2203 68.1821 95.4547 68.1821C91.6892 68.1821 88.6367 71.2347 88.6367 75.0002C88.6367 78.7657 91.6892 81.8183 95.4547 81.8183Z" fill="#5628B4"/>
<path d="M127.427 60.7627C134.975 59.058 140.87 53.1635 142.574 45.6155C142.623 45.4093 142.713 45.2128 142.755 45.0057C144.618 36.0805 140.361 26.998 132.311 22.7179C124.261 18.4378 114.351 19.9891 107.994 26.5243C101.636 33.0596 100.359 43.0085 104.86 50.9375C109.36 58.8665 118.557 62.8705 127.427 60.7627ZM135.482 45.4605C134.842 47.3723 133.779 49.1151 132.371 50.5591C127.044 55.8859 118.408 55.8859 113.08 50.5591C111.673 49.1151 110.61 47.3723 109.97 45.4605C107.919 39.8249 109.81 33.5115 114.62 29.9307C119.431 26.3495 126.021 26.3495 130.832 29.9307C135.642 33.5118 137.532 39.8249 135.482 45.4605Z" fill="#E7455F"/>
<path d="M129.545 27.2726L134.952 21.8666C136.834 19.9838 139.887 19.9838 141.77 21.8666C143.652 23.7493 143.652 26.8019 141.77 28.6846L136.364 34.0907L129.545 27.2726Z" fill="#E7455F"/>
<path d="M30.6803 119.318L73.5898 76.4087C75.4719 74.5265 78.5235 74.5265 80.4056 76.4087L80.4078 76.4109C82.29 78.293 82.29 81.3446 80.4078 83.2268L37.4983 126.136C35.6162 128.018 32.5646 128.018 30.6825 126.136L30.6803 126.134C28.7981 124.252 28.7981 121.2 30.6803 119.318Z" fill="#F57E00"/>
</svg>
