<svg width="150" height="150" viewBox="0 0 150 150" fill="none" xmlns="http://www.w3.org/2000/svg">
<path d="M13.6363 0.000976562H136.361C143.892 0.000976562 149.997 6.10625 149.997 13.6373V122.727C149.997 130.258 143.892 136.364 136.361 136.364H13.6363C6.10528 136.364 0 130.258 0 122.727V13.6373C0 6.10625 6.10528 0.000976562 13.6363 0.000976562Z" fill="#F0EAF9"/>
<path d="M6.81798 27.2745H143.179C146.944 27.2745 149.997 30.327 149.997 34.0925V34.0928C149.997 37.8583 146.944 40.9108 143.179 40.9108H6.81798C3.05248 40.9108 0 37.8583 0 34.0928V34.0925C0 30.327 3.05248 27.2745 6.81798 27.2745Z" fill="#E1D5F3"/>
<path d="M13.6363 0.000976562H136.362C143.893 0.000976562 149.998 6.10625 149.998 13.6373V34.0915H0V13.6373C0 6.10625 6.10528 0.000976562 13.6363 0.000976562Z" fill="#5628B4"/>
<path d="M13.6363 0.000976562H136.363C140.129 0.000976562 143.181 3.05345 143.181 6.81896V6.81927C143.181 10.5848 140.129 13.6373 136.363 13.6373H13.6363C9.87078 13.6373 6.8183 10.5848 6.8183 6.81927V6.81896C6.8183 3.05345 9.87078 0.000976562 13.6363 0.000976562Z" fill="#6F48BF"/>
<path d="M10.2274 27.2745H139.772C141.655 27.2745 143.181 28.8009 143.181 30.6837C143.181 32.5664 141.655 34.0928 139.772 34.0928H10.2274C8.3447 34.0928 6.8183 32.5664 6.8183 30.6837C6.8183 28.8009 8.3447 27.2745 10.2274 27.2745Z" fill="#421198"/>
<path d="M146.589 47.7278C144.706 47.7278 143.18 49.2539 143.18 51.1366C143.18 51.1366 143.18 51.1366 143.18 51.1369V122.727C143.18 126.492 140.127 129.545 136.362 129.545H98.8624C96.9797 129.545 95.4533 131.071 95.4533 132.954C95.4533 134.837 96.9797 136.363 98.8624 136.363H136.362C143.893 136.363 149.998 130.258 149.998 122.727V51.1369C149.998 49.2539 148.472 47.7278 146.589 47.7278Z" fill="#D9C9EF"/>
<path d="M3.40915 61.3628C5.2919 61.3628 6.8183 62.8892 6.8183 64.7719V119.316C6.8183 121.199 5.2919 122.726 3.40915 122.726C1.5264 122.726 0 121.199 0 119.316V64.7719C0 62.8892 1.5264 61.3628 3.40915 61.3628Z" fill="#DFD2F2"/>
<path d="M17.0464 20.4565C18.9292 20.4565 20.4555 18.9302 20.4555 17.0473C20.4555 15.1645 18.9292 13.6382 17.0464 13.6382C15.1636 13.6382 13.6372 15.1645 13.6372 17.0473C13.6372 18.9302 15.1636 20.4565 17.0464 20.4565Z" fill="#F7B236"/>
<path d="M30.6804 20.4565C32.5632 20.4565 34.0896 18.9302 34.0896 17.0473C34.0896 15.1645 32.5632 13.6382 30.6804 13.6382C28.7976 13.6382 27.2713 15.1645 27.2713 17.0473C27.2713 18.9302 28.7976 20.4565 30.6804 20.4565Z" fill="#B39DDD"/>
<path d="M44.3177 20.4565C46.2005 20.4565 47.7268 18.9302 47.7268 17.0473C47.7268 15.1645 46.2005 13.6382 44.3177 13.6382C42.4348 13.6382 40.9085 15.1645 40.9085 17.0473C40.9085 18.9302 42.4348 20.4565 44.3177 20.4565Z" fill="#D80E70"/>
<path d="M129.544 95.4543H61.3628C57.5973 95.4543 54.5448 92.4018 54.5448 88.6363V54.5467C54.5448 50.7812 57.5973 47.7288 61.3628 47.7288H129.544C133.309 47.7288 136.362 50.7812 136.362 54.5467V88.6363C136.362 92.4018 133.309 95.4543 129.544 95.4543Z" fill="#B39DDD"/>
<path d="M34.0896 75H20.4543C16.6888 75 13.6363 71.9476 13.6363 68.1821V54.5467C13.6363 50.7812 16.6888 47.7288 20.4543 47.7288H34.0896C37.8551 47.7288 40.9076 50.7812 40.9076 54.5467V68.1821C40.9076 71.9476 37.8551 75 34.0896 75Z" fill="#B39DDD"/>
<path d="M34.0896 122.726H20.4543C16.6888 122.726 13.6363 119.673 13.6363 115.908V102.272C13.6363 98.5068 16.6888 95.4543 20.4543 95.4543H34.0896C37.8551 95.4543 40.9076 98.5068 40.9076 102.272V115.908C40.9076 119.673 37.8551 122.726 34.0896 122.726Z" fill="#B39DDD"/>
<path d="M57.9539 102.271H78.4069C80.2897 102.271 81.8161 103.798 81.8161 105.68C81.8161 107.563 80.2897 109.09 78.4069 109.09H57.9539C56.0712 109.09 54.5448 107.563 54.5448 105.68C54.5448 103.798 56.0712 102.271 57.9539 102.271Z" fill="#B39DDD"/>
<path d="M126.134 102.271H132.952C134.834 102.271 136.361 103.798 136.361 105.68C136.361 107.563 134.834 109.09 132.952 109.09H126.134C124.251 109.09 122.725 107.563 122.725 105.68C122.725 103.798 124.251 102.271 126.134 102.271Z" fill="#B39DDD"/>
<path d="M92.0454 102.271H112.498C114.381 102.271 115.908 103.798 115.908 105.68C115.908 107.563 114.381 109.09 112.498 109.09H92.0454C90.1627 109.09 88.6363 107.563 88.6363 105.68C88.6363 103.798 90.1627 102.271 92.0454 102.271Z" fill="#B39DDD"/>
<path d="M57.9539 115.909H85.2271C87.1099 115.909 88.6363 117.435 88.6363 119.318C88.6363 121.2 87.1099 122.727 85.2271 122.727H57.9539C56.0712 122.727 54.5448 121.2 54.5448 119.318C54.5448 117.435 56.0712 115.909 57.9539 115.909Z" fill="#B39DDD"/>
<path d="M98.8624 115.909H105.68C107.563 115.909 109.09 117.435 109.09 119.318C109.09 121.2 107.563 122.727 105.68 122.727H98.8624C96.9797 122.727 95.4533 121.2 95.4533 119.318C95.4533 117.435 96.9797 115.909 98.8624 115.909Z" fill="#B39DDD"/>
<path d="M37.4984 88.6373H17.0454C15.1627 88.6373 13.6363 87.1109 13.6363 85.2281C13.6363 83.3454 15.1627 81.819 17.0454 81.819H37.4984C39.3812 81.819 40.9076 83.3454 40.9076 85.2281C40.9076 87.1109 39.3812 88.6373 37.4984 88.6373Z" fill="#B39DDD"/>
<path d="M74.999 102.272H68.1817C49.3542 102.272 34.0912 117.535 34.0912 136.363C34.0912 136.363 34.0912 136.363 34.0912 136.363V136.544C34.1155 140.268 30.8284 143.181 27.1041 143.181H23.8634C21.9807 143.181 20.4543 144.707 20.4543 146.59C20.4543 148.473 21.9807 149.999 23.8634 149.999H47.7268C66.5543 149.999 81.817 134.736 81.817 115.909V102.272H74.999V102.272Z" fill="#F7B236"/>
<path d="M81.817 115.909V102.272H74.999C74.999 121.1 59.7363 136.363 40.9085 136.363H34.0915V136.544C34.1158 140.268 30.8284 143.181 27.1044 143.181H23.8634C21.9807 143.181 20.4543 144.707 20.4543 146.59C20.4543 148.473 21.9807 149.999 23.8634 149.999H47.7268C66.5543 149.999 81.817 134.736 81.817 115.909Z" fill="#F58B04"/>
<path d="M147.713 36.3766C145.624 34.2874 142.533 33.5578 139.73 34.4923C115.7 42.983 95.9023 60.4666 84.5045 83.2619L81.817 88.6363V102.273H95.4533L100.828 99.5854C123.623 88.1876 141.107 68.3894 149.597 44.3595C150.532 41.556 149.802 38.4658 147.713 36.3766Z" fill="#D80E70"/>
<path d="M121.915 55.36C119.253 52.6974 111.352 56.2816 104.268 63.3654C97.1841 70.4492 93.6 78.3502 96.2625 81.0127C98.9251 83.6753 106.826 80.0912 113.91 73.0074C120.994 65.9236 124.578 58.0226 121.915 55.36Z" fill="#E976AF"/>
<path d="M139.73 34.492C138.55 34.909 137.43 35.4463 136.27 35.9059C135.382 66.4757 112.195 91.7626 81.817 95.2913V102.273H95.4533L100.828 99.5851C123.623 88.1873 141.107 68.3891 149.598 44.3592C150.96 40.2719 148.75 35.8541 144.663 34.492C143.062 33.9582 141.331 33.9582 139.73 34.492Z" fill="#A60068"/>
<path d="M74.9991 102.272L81.817 109.09L95.4533 102.272L81.817 88.6362L74.9991 102.272Z" fill="#5628B4"/>
<path d="M78.6847 105.958L81.817 109.09L95.4533 102.272L88.9118 95.7308C86.0875 92.9065 81.5089 92.9065 78.6847 95.7308C78.135 96.2805 77.6776 96.9149 77.3299 97.6103C75.938 100.395 76.4836 103.757 78.6847 105.958Z" fill="#420F9B"/>
<path d="M60.9332 109.832C58.8592 107.758 52.884 110.371 47.5871 115.667C42.2901 120.964 39.6774 126.94 41.7514 129.014C43.8253 131.088 49.8006 128.475 55.0975 123.178C60.3944 117.881 63.0072 111.906 60.9332 109.832Z" fill="#FBDA9E"/>
</svg>
