<svg width="950" height="600" viewBox="0 0 950 600" fill="none" xmlns="http://www.w3.org/2000/svg">
<g filter="url(#filter0_ddddii)">
<circle cx="450" cy="225" r="150" fill="#F4F4F4" fill-opacity="0.4"/>
</g>
<circle cx="451.765" cy="226.764" r="88.2353" fill="#77E675"/>
<path d="M459.014 257.452H456.256V243.941C456.256 243.575 456.111 243.224 455.852 242.966C455.594 242.707 455.243 242.562 454.878 242.562C454.512 242.562 454.161 242.707 453.903 242.966C453.644 243.224 453.499 243.575 453.499 243.941V257.452H417.651V229.877H429.123C429.488 229.877 429.839 229.732 430.097 229.474C430.356 229.215 430.501 228.864 430.501 228.499C430.501 228.133 430.356 227.782 430.097 227.524C429.839 227.265 429.488 227.12 429.123 227.12H416.273C415.907 227.12 415.556 227.265 415.298 227.524C415.039 227.782 414.894 228.133 414.894 228.499V257.452H412.136C411.771 257.452 411.42 257.598 411.161 257.856C410.903 258.115 410.758 258.466 410.758 258.831V261.589C410.758 263.417 411.484 265.171 412.777 266.463C414.07 267.756 415.823 268.482 417.651 268.482H453.499C455.327 268.482 457.081 267.756 458.373 266.463C459.666 265.171 460.393 263.417 460.393 261.589V258.831C460.393 258.466 460.247 258.115 459.989 257.856C459.73 257.598 459.379 257.452 459.014 257.452ZM457.635 261.589C457.635 262.686 457.199 263.738 456.424 264.514C455.648 265.289 454.596 265.725 453.499 265.725H450.741V264.346C450.741 263.981 450.596 263.63 450.337 263.371C450.079 263.113 449.728 262.967 449.363 262.967C448.997 262.967 448.646 263.113 448.388 263.371C448.129 263.63 447.984 263.981 447.984 264.346V265.725H423.166V264.346C423.166 263.981 423.021 263.63 422.762 263.371C422.504 263.113 422.153 262.967 421.788 262.967C421.422 262.967 421.071 263.113 420.813 263.371C420.554 263.63 420.409 263.981 420.409 264.346V265.725H417.651C416.554 265.725 415.502 265.289 414.727 264.514C413.951 263.738 413.515 262.686 413.515 261.589V260.21H457.635V261.589Z" fill="white"/>
<path d="M482.453 194.03H485.21C485.576 194.03 485.926 193.885 486.185 193.626C486.444 193.368 486.589 193.017 486.589 192.651C486.589 192.286 486.444 191.935 486.185 191.676C485.926 191.418 485.576 191.272 485.21 191.272H482.453C481.356 191.272 480.304 191.708 479.528 192.484C478.752 193.26 478.316 194.312 478.316 195.409V196.787H476.938C476.572 196.787 476.221 196.933 475.963 197.191C475.704 197.45 475.559 197.801 475.559 198.166C475.559 198.532 475.704 198.883 475.963 199.141C476.221 199.4 476.572 199.545 476.938 199.545H478.316V203.681C478.316 204.047 478.462 204.398 478.72 204.656C478.979 204.915 479.329 205.06 479.695 205.06C480.061 205.06 480.411 204.915 480.67 204.656C480.929 204.398 481.074 204.047 481.074 203.681V199.545H482.453C482.818 199.545 483.169 199.4 483.428 199.141C483.686 198.883 483.831 198.532 483.831 198.166C483.831 197.801 483.686 197.45 483.428 197.191C483.169 196.933 482.818 196.787 482.453 196.787H481.074V195.409C481.074 195.043 481.219 194.692 481.478 194.434C481.736 194.175 482.087 194.03 482.453 194.03Z" fill="white"/>
<path d="M489.346 185.757H472.801C471.704 185.757 470.652 186.193 469.877 186.969C469.101 187.745 468.665 188.797 468.665 189.894V192.651C468.665 193.017 468.81 193.368 469.069 193.626C469.327 193.885 469.678 194.03 470.044 194.03C470.409 194.03 470.76 193.885 471.019 193.626C471.277 193.368 471.423 193.017 471.423 192.651V189.894C471.423 189.528 471.568 189.177 471.826 188.919C472.085 188.66 472.436 188.515 472.801 188.515H489.346C489.712 188.515 490.063 188.66 490.321 188.919C490.58 189.177 490.725 189.528 490.725 189.894V206.439C490.725 206.804 490.58 207.155 490.321 207.414C490.063 207.672 489.712 207.817 489.346 207.817H472.801C472.436 207.817 472.085 207.672 471.826 207.414C471.568 207.155 471.423 206.804 471.423 206.439V198.166C471.423 197.801 471.277 197.45 471.019 197.191C470.76 196.933 470.409 196.787 470.044 196.787C469.678 196.787 469.327 196.933 469.069 197.191C468.81 197.45 468.665 197.801 468.665 198.166V206.439C468.665 207.536 469.101 208.588 469.877 209.363C470.652 210.139 471.704 210.575 472.801 210.575H489.346C490.443 210.575 491.495 210.139 492.271 209.363C493.047 208.588 493.483 207.536 493.483 206.439V189.894C493.483 188.797 493.047 187.745 492.271 186.969C491.495 186.193 490.443 185.757 489.346 185.757V185.757Z" fill="white"/>
<path d="M475.559 240.907C475.559 241.998 475.882 243.064 476.488 243.971C477.094 244.878 477.956 245.585 478.963 246.003C479.971 246.42 481.08 246.529 482.15 246.316C483.22 246.104 484.202 245.578 484.974 244.807C485.745 244.036 486.27 243.053 486.483 241.983C486.696 240.914 486.586 239.805 486.169 238.797C485.752 237.789 485.045 236.928 484.138 236.322C483.231 235.716 482.165 235.392 481.074 235.392C479.611 235.392 478.208 235.974 477.174 237.008C476.14 238.042 475.559 239.445 475.559 240.907ZM483.831 240.907C483.831 241.453 483.67 241.986 483.367 242.439C483.064 242.893 482.633 243.246 482.129 243.455C481.625 243.664 481.071 243.718 480.536 243.612C480.001 243.506 479.51 243.243 479.124 242.857C478.738 242.472 478.476 241.98 478.369 241.445C478.263 240.911 478.318 240.356 478.526 239.852C478.735 239.348 479.088 238.918 479.542 238.615C479.995 238.312 480.528 238.15 481.074 238.15C481.805 238.15 482.507 238.44 483.024 238.958C483.541 239.475 483.831 240.176 483.831 240.907Z" fill="white"/>
<path d="M489.346 228.499H472.801C471.704 228.499 470.652 228.935 469.877 229.71C469.101 230.486 468.665 231.538 468.665 232.635V249.18C468.665 250.277 469.101 251.329 469.877 252.105C470.652 252.88 471.704 253.316 472.801 253.316H489.346C490.443 253.316 491.495 252.88 492.271 252.105C493.047 251.329 493.483 250.277 493.483 249.18V246.423C493.483 246.057 493.337 245.706 493.079 245.448C492.82 245.189 492.469 245.044 492.104 245.044C491.738 245.044 491.387 245.189 491.129 245.448C490.87 245.706 490.725 246.057 490.725 246.423V249.18C490.725 249.546 490.58 249.896 490.321 250.155C490.063 250.414 489.712 250.559 489.346 250.559H472.801C472.436 250.559 472.085 250.414 471.826 250.155C471.568 249.896 471.423 249.546 471.423 249.18V232.635C471.423 232.269 471.568 231.919 471.826 231.66C472.085 231.402 472.436 231.256 472.801 231.256H489.346C489.712 231.256 490.063 231.402 490.321 231.66C490.58 231.919 490.725 232.269 490.725 232.635V240.908C490.725 241.273 490.87 241.624 491.129 241.882C491.387 242.141 491.738 242.286 492.104 242.286C492.469 242.286 492.82 242.141 493.079 241.882C493.337 241.624 493.483 241.273 493.483 240.908V232.635C493.483 231.538 493.047 230.486 492.271 229.71C491.495 228.935 490.443 228.499 489.346 228.499V228.499Z" fill="white"/>
<path d="M441.738 202.096C441.958 202.232 442.211 202.303 442.469 202.303C442.685 202.301 442.897 202.249 443.089 202.151L451.362 198.015C451.588 197.899 451.777 197.723 451.909 197.507C452.042 197.29 452.112 197.041 452.112 196.788C452.112 196.534 452.042 196.285 451.909 196.068C451.777 195.852 451.588 195.676 451.362 195.56L443.089 191.424C442.879 191.318 442.646 191.268 442.411 191.278C442.176 191.288 441.948 191.357 441.748 191.48C441.547 191.603 441.382 191.775 441.267 191.98C441.152 192.185 441.091 192.416 441.09 192.651V200.924C441.09 201.158 441.149 201.389 441.262 201.594C441.376 201.799 441.539 201.972 441.738 202.096V202.096ZM443.848 194.885L447.653 196.788L443.848 198.69V194.885Z" fill="white"/>
<path d="M445.226 209.196C447.68 209.196 450.079 208.468 452.12 207.105C454.161 205.741 455.751 203.803 456.69 201.536C457.63 199.269 457.875 196.774 457.396 194.367C456.918 191.96 455.736 189.749 454 188.013C452.265 186.278 450.054 185.096 447.647 184.617C445.24 184.138 442.745 184.384 440.478 185.323C438.21 186.262 436.272 187.853 434.909 189.893C433.545 191.934 432.817 194.333 432.817 196.787C432.817 200.078 434.125 203.235 436.452 205.562C438.779 207.889 441.935 209.196 445.226 209.196V209.196ZM445.226 187.136C447.135 187.136 449.001 187.702 450.588 188.763C452.175 189.823 453.412 191.331 454.143 193.094C454.873 194.858 455.064 196.798 454.692 198.67C454.32 200.542 453.4 202.262 452.051 203.612C450.701 204.962 448.981 205.881 447.109 206.253C445.237 206.626 443.296 206.434 441.533 205.704C439.769 204.974 438.262 203.737 437.201 202.149C436.141 200.562 435.575 198.696 435.575 196.787C435.575 194.228 436.592 191.773 438.402 189.963C440.212 188.153 442.666 187.136 445.226 187.136V187.136Z" fill="white"/>
<path d="M459.014 214.711C459.228 214.711 459.439 214.661 459.63 214.566C459.822 214.47 459.988 214.331 460.117 214.16L464.253 208.645C464.472 208.352 464.567 207.984 464.515 207.622C464.463 207.26 464.27 206.934 463.977 206.714C463.685 206.495 463.317 206.401 462.955 206.453C462.593 206.504 462.266 206.698 462.047 206.99L457.911 212.505C457.691 212.798 457.597 213.165 457.649 213.527C457.701 213.889 457.894 214.216 458.187 214.435C458.425 214.614 458.715 214.711 459.014 214.711Z" fill="white"/>
<path d="M462.047 219.675C462.175 219.846 462.342 219.985 462.533 220.081C462.725 220.176 462.936 220.226 463.15 220.226C463.448 220.226 463.739 220.13 463.977 219.951L469.492 215.814C469.785 215.595 469.978 215.268 470.03 214.906C470.082 214.544 469.987 214.177 469.768 213.884C469.549 213.591 469.222 213.398 468.86 213.346C468.498 213.295 468.13 213.389 467.838 213.608L462.323 217.745C462.03 217.964 461.837 218.291 461.785 218.653C461.733 219.015 461.828 219.382 462.047 219.675V219.675Z" fill="white"/>
<path d="M475.559 222.708C475.526 222.525 475.457 222.351 475.355 222.196C475.253 222.04 475.121 221.907 474.966 221.804C474.812 221.701 474.638 221.63 474.456 221.596C474.273 221.562 474.086 221.565 473.904 221.605L467.01 222.984C466.829 223.002 466.654 223.055 466.493 223.141C466.333 223.227 466.191 223.344 466.076 223.485C465.843 223.769 465.733 224.135 465.77 224.5C465.806 224.866 465.986 225.202 466.271 225.435C466.555 225.668 466.921 225.778 467.286 225.741H467.562L474.456 224.362C474.638 224.33 474.813 224.26 474.968 224.159C475.123 224.057 475.257 223.925 475.36 223.77C475.463 223.616 475.533 223.442 475.568 223.259C475.602 223.077 475.599 222.889 475.559 222.708Z" fill="white"/>
<path d="M412.136 222.984H428.681C429.047 222.984 429.398 222.839 429.656 222.58C429.915 222.321 430.06 221.971 430.06 221.605V199.545C430.06 199.179 429.915 198.829 429.656 198.57C429.398 198.312 429.047 198.166 428.681 198.166H412.136C411.771 198.166 411.42 198.312 411.161 198.57C410.903 198.829 410.758 199.179 410.758 199.545V221.605C410.758 221.971 410.903 222.321 411.161 222.58C411.42 222.839 411.771 222.984 412.136 222.984ZM413.515 200.924H427.303V220.226H413.515V200.924Z" fill="white"/>
<path d="M423.166 203.681H420.409C420.043 203.681 419.692 203.827 419.434 204.085C419.175 204.344 419.03 204.694 419.03 205.06C419.03 205.426 419.175 205.776 419.434 206.035C419.692 206.294 420.043 206.439 420.409 206.439H423.166C423.532 206.439 423.883 206.294 424.141 206.035C424.4 205.776 424.545 205.426 424.545 205.06C424.545 204.694 424.4 204.344 424.141 204.085C423.883 203.827 423.532 203.681 423.166 203.681Z" fill="white"/>
<path d="M423.166 209.196H417.651C417.286 209.196 416.935 209.342 416.676 209.6C416.418 209.859 416.272 210.209 416.272 210.575C416.272 210.941 416.418 211.291 416.676 211.55C416.935 211.809 417.286 211.954 417.651 211.954H423.166C423.532 211.954 423.883 211.809 424.141 211.55C424.4 211.291 424.545 210.941 424.545 210.575C424.545 210.209 424.4 209.859 424.141 209.6C423.883 209.342 423.532 209.196 423.166 209.196Z" fill="white"/>
<path d="M423.166 214.711H417.651C417.286 214.711 416.935 214.857 416.676 215.115C416.418 215.374 416.272 215.724 416.272 216.09C416.272 216.456 416.418 216.806 416.676 217.065C416.935 217.324 417.286 217.469 417.651 217.469H423.166C423.532 217.469 423.883 217.324 424.141 217.065C424.4 216.806 424.545 216.456 424.545 216.09C424.545 215.724 424.4 215.374 424.141 215.115C423.883 214.857 423.532 214.711 423.166 214.711Z" fill="white"/>
<path d="M457.8 222.57C457.71 222.413 457.589 222.274 457.445 222.164C457.301 222.053 457.137 221.971 456.962 221.924C456.786 221.876 456.603 221.864 456.423 221.887C456.243 221.911 456.069 221.969 455.912 222.06C455.754 222.151 455.616 222.271 455.505 222.415C455.394 222.559 455.313 222.723 455.265 222.899C455.218 223.074 455.206 223.257 455.229 223.437C455.252 223.618 455.311 223.791 455.401 223.949L461.482 234.469L439.422 242.741C439.422 242.741 439.422 242.741 439.325 242.741H439.215L435.63 244.809L433.245 246.188C432.931 246.37 432.584 246.487 432.225 246.535C431.865 246.582 431.5 246.558 431.149 246.464C430.445 246.274 429.846 245.813 429.481 245.182L426.723 240.411C426.399 239.787 426.325 239.062 426.518 238.386C426.71 237.709 427.153 237.132 427.757 236.771L432.528 234.014L435.975 239.984C436.096 240.194 436.271 240.369 436.482 240.49C436.693 240.611 436.931 240.674 437.174 240.673C437.417 240.674 437.655 240.611 437.866 240.49C438.076 240.37 438.251 240.196 438.372 239.986C438.494 239.776 438.558 239.538 438.559 239.296C438.559 239.053 438.495 238.815 438.374 238.605L434.817 232.456L452.12 218.186L452.685 219.165C452.776 219.322 452.896 219.46 453.04 219.571C453.184 219.682 453.349 219.764 453.524 219.811C453.699 219.858 453.882 219.871 454.063 219.847C454.243 219.824 454.417 219.765 454.574 219.675C454.732 219.584 454.87 219.464 454.981 219.32C455.092 219.176 455.173 219.011 455.22 218.836C455.268 218.661 455.28 218.478 455.257 218.297C455.233 218.117 455.175 217.943 455.084 217.786L453.706 215.401C453.605 215.228 453.467 215.079 453.303 214.965C453.139 214.851 452.951 214.773 452.754 214.739C452.556 214.701 452.352 214.708 452.157 214.758C451.961 214.808 451.779 214.9 451.624 215.028L432.321 230.939L426.448 234.331C425.394 234.945 424.573 235.891 424.114 237.021C423.655 238.151 423.583 239.402 423.911 240.577L422.532 241.362C421.822 241.77 421.248 242.38 420.885 243.114C420.521 243.848 420.384 244.674 420.491 245.486C420.597 246.299 420.942 247.061 421.482 247.677C422.022 248.293 422.733 248.734 423.525 248.946C423.876 249.039 424.237 249.085 424.6 249.083C425.325 249.08 426.038 248.891 426.668 248.532L428.047 247.746C428.709 248.43 429.542 248.925 430.46 249.18C430.931 249.312 431.418 249.377 431.908 249.373C432.877 249.375 433.829 249.118 434.665 248.628L435.865 247.939L438.622 252.723C439.17 253.671 440.071 254.362 441.128 254.647C442.185 254.931 443.312 254.785 444.261 254.24C444.732 253.969 445.145 253.607 445.476 253.176C445.807 252.745 446.05 252.253 446.191 251.728C446.332 251.203 446.368 250.655 446.297 250.116C446.226 249.577 446.05 249.058 445.778 248.587L443.268 244.217L463.95 236.454C464.137 236.384 464.307 236.273 464.448 236.13C464.588 235.987 464.696 235.816 464.763 235.627C464.83 235.44 464.856 235.242 464.84 235.044C464.823 234.847 464.764 234.655 464.667 234.483L457.8 222.57ZM425.234 246.133C425.077 246.224 424.904 246.283 424.724 246.306C424.544 246.33 424.362 246.318 424.187 246.271C423.833 246.179 423.531 245.951 423.345 245.637C423.255 245.48 423.196 245.306 423.172 245.126C423.148 244.947 423.161 244.764 423.208 244.589C423.255 244.413 423.336 244.248 423.447 244.103C423.559 243.959 423.697 243.838 423.856 243.748L425.055 243.058L426.434 245.444L425.234 246.133ZM443.379 249.993C443.469 250.15 443.528 250.324 443.552 250.504C443.576 250.683 443.564 250.866 443.517 251.041C443.418 251.392 443.185 251.689 442.869 251.869C442.554 252.049 442.18 252.099 441.829 252.006C441.478 251.913 441.178 251.685 440.993 251.372L438.236 246.588L440.525 245.278H440.635L443.379 249.993Z" fill="white"/>
<defs>
<filter id="filter0_ddddii" x="0" y="-225" width="950" height="950" filterUnits="userSpaceOnUse" color-interpolation-filters="sRGB">
<feFlood flood-opacity="0" result="BackgroundImageFix"/>
<feColorMatrix in="SourceAlpha" type="matrix" values="0 0 0 0 0 0 0 0 0 0 0 0 0 0 0 0 0 0 127 0" result="hardAlpha"/>
<feOffset dx="100" dy="100"/>
<feGaussianBlur stdDeviation="125"/>
<feColorMatrix type="matrix" values="0 0 0 0 0.929412 0 0 0 0 0.929412 0 0 0 0 0.929412 0 0 0 0.9 0"/>
<feBlend mode="normal" in2="BackgroundImageFix" result="effect1_dropShadow"/>
<feColorMatrix in="SourceAlpha" type="matrix" values="0 0 0 0 0 0 0 0 0 0 0 0 0 0 0 0 0 0 127 0" result="hardAlpha"/>
<feOffset dx="-100" dy="-100"/>
<feGaussianBlur stdDeviation="100"/>
<feColorMatrix type="matrix" values="0 0 0 0 0.984314 0 0 0 0 0.984314 0 0 0 0 0.984314 0 0 0 0.9 0"/>
<feBlend mode="normal" in2="effect1_dropShadow" result="effect2_dropShadow"/>
<feColorMatrix in="SourceAlpha" type="matrix" values="0 0 0 0 0 0 0 0 0 0 0 0 0 0 0 0 0 0 127 0" result="hardAlpha"/>
<feOffset dx="100" dy="-100"/>
<feGaussianBlur stdDeviation="100"/>
<feColorMatrix type="matrix" values="0 0 0 0 0.929412 0 0 0 0 0.929412 0 0 0 0 0.929412 0 0 0 0.2 0"/>
<feBlend mode="normal" in2="effect2_dropShadow" result="effect3_dropShadow"/>
<feColorMatrix in="SourceAlpha" type="matrix" values="0 0 0 0 0 0 0 0 0 0 0 0 0 0 0 0 0 0 127 0" result="hardAlpha"/>
<feOffset dx="-100" dy="100"/>
<feGaussianBlur stdDeviation="100"/>
<feColorMatrix type="matrix" values="0 0 0 0 0.929412 0 0 0 0 0.929412 0 0 0 0 0.929412 0 0 0 0.2 0"/>
<feBlend mode="normal" in2="effect3_dropShadow" result="effect4_dropShadow"/>
<feBlend mode="normal" in="SourceGraphic" in2="effect4_dropShadow" result="shape"/>
<feColorMatrix in="SourceAlpha" type="matrix" values="0 0 0 0 0 0 0 0 0 0 0 0 0 0 0 0 0 0 127 0" result="hardAlpha"/>
<feOffset dx="-4" dy="-4"/>
<feGaussianBlur stdDeviation="2.5"/>
<feComposite in2="hardAlpha" operator="arithmetic" k2="-1" k3="1"/>
<feColorMatrix type="matrix" values="0 0 0 0 0.929412 0 0 0 0 0.929412 0 0 0 0 0.929412 0 0 0 0.5 0"/>
<feBlend mode="normal" in2="shape" result="effect5_innerShadow"/>
<feColorMatrix in="SourceAlpha" type="matrix" values="0 0 0 0 0 0 0 0 0 0 0 0 0 0 0 0 0 0 127 0" result="hardAlpha"/>
<feOffset dx="4" dy="4"/>
<feGaussianBlur stdDeviation="2.5"/>
<feComposite in2="hardAlpha" operator="arithmetic" k2="-1" k3="1"/>
<feColorMatrix type="matrix" values="0 0 0 0 0.984314 0 0 0 0 0.984314 0 0 0 0 0.984314 0 0 0 0.3 0"/>
<feBlend mode="normal" in2="effect5_innerShadow" result="effect6_innerShadow"/>
</filter>
</defs>
</svg>
