<svg width="477" height="518" viewBox="0 0 477 518" fill="none" xmlns="http://www.w3.org/2000/svg">
<path d="M1.40525 466.34C1.09201 491.546 21.4924 512.322 46.8855 512.637C53.7809 512.723 60.5288 511.244 66.9316 508.24L66.9629 508.22C137.339 474.987 237.271 419.058 325.433 369.713C371.486 343.929 414.98 319.593 448.024 302.002C463.649 293.695 473.107 278.708 473.316 261.917C473.525 245.126 464.442 229.908 449.028 221.216C416.358 202.788 373.379 177.315 327.878 150.33C241.063 98.8723 142.665 40.5411 73.2189 5.61246C66.893 2.42961 60.1742 0.762004 53.2477 0.675927C27.8537 0.360349 6.94429 20.6231 6.63079 45.8501L4.03889 256.105L1.40525 466.34ZM27.9631 46.1162C28.1754 29.0345 47.5201 16.544 63.6175 24.6616C132.422 59.2693 230.488 117.409 317.003 168.696C362.609 195.723 405.68 221.26 438.546 239.795C447.07 244.61 452.094 252.778 451.984 261.652C451.873 270.526 446.648 278.566 438.007 283.168C404.754 300.86 361.165 325.258 315.019 351.083C227.151 400.266 127.565 456.012 57.8488 488.94C41.4707 496.654 22.5266 483.667 22.7386 466.606L25.3722 256.372L27.9631 46.1162Z" fill="black"/>
</svg>
