<svg width="950" height="600" viewBox="0 0 950 600" fill="none" xmlns="http://www.w3.org/2000/svg">
<g filter="url(#filter0_ddddii)">
<circle cx="450" cy="217" r="150" fill="#F4F4F4" fill-opacity="0.4"/>
</g>
<circle cx="451.765" cy="218.764" r="88.2353" fill="#589BFF"/>
<g clip-path="url(#clip0)">
<path d="M452.12 243.593H416.617C413.766 243.593 411.447 241.274 411.447 238.423V186.03C411.447 183.179 413.766 180.86 416.617 180.86H478.316C481.167 180.86 483.487 183.179 483.487 186.03V219.201C483.487 220.153 484.258 220.924 485.21 220.924C486.162 220.924 486.933 220.153 486.933 219.201V186.03C486.933 181.278 483.068 177.413 478.316 177.413H416.617C411.866 177.413 408 181.278 408 186.03V238.423C408 243.174 411.866 247.04 416.617 247.04H452.12C453.072 247.04 453.843 246.268 453.843 245.316C453.843 244.364 453.072 243.593 452.12 243.593Z" fill="white"/>
<path d="M486.429 227.003C486.749 226.682 486.933 226.238 486.933 225.785C486.933 225.329 486.749 224.887 486.429 224.566C486.108 224.245 485.663 224.061 485.21 224.061C484.757 224.061 484.312 224.245 483.991 224.566C483.671 224.887 483.487 225.331 483.487 225.785C483.487 226.238 483.671 226.682 483.991 227.003C484.312 227.323 484.757 227.508 485.21 227.508C485.663 227.508 486.108 227.323 486.429 227.003Z" fill="white"/>
<path d="M494.517 243.593H488.361C487.649 241.587 485.733 240.146 483.487 240.146C481.24 240.146 479.324 241.587 478.612 243.593H459.113C458.161 243.593 457.39 244.364 457.39 245.316C457.39 246.268 458.161 247.04 459.113 247.04H478.612C479.324 249.046 481.24 250.487 483.487 250.487C485.733 250.487 487.649 249.046 488.361 247.04H494.517C495.468 247.04 496.24 246.268 496.24 245.316C496.24 244.364 495.468 243.593 494.517 243.593ZM483.487 247.04C482.536 247.04 481.763 246.267 481.763 245.316C481.763 244.366 482.536 243.593 483.487 243.593C484.437 243.593 485.21 244.366 485.21 245.316C485.21 246.267 484.437 247.04 483.487 247.04Z" fill="white"/>
<path d="M494.516 254.095H475.017C474.305 252.089 472.39 250.648 470.143 250.648C467.896 250.648 465.981 252.089 465.269 254.095H459.113C458.161 254.095 457.389 254.866 457.389 255.818C457.389 256.77 458.161 257.542 459.113 257.542H465.269C465.981 259.548 467.896 260.989 470.143 260.989C472.39 260.989 474.305 259.548 475.017 257.542H494.516C495.468 257.542 496.24 256.77 496.24 255.818C496.24 254.866 495.468 254.095 494.516 254.095ZM470.143 257.542C469.193 257.542 468.42 256.769 468.42 255.818C468.42 254.868 469.193 254.095 470.143 254.095C471.093 254.095 471.867 254.868 471.867 255.818C471.867 256.769 471.093 257.542 470.143 257.542Z" fill="white"/>
<path d="M470.143 229.644C467.896 229.644 465.981 231.085 465.269 233.091H459.113C458.161 233.091 457.39 233.862 457.39 234.814C457.39 235.766 458.161 236.538 459.113 236.538H465.269C465.981 238.544 467.896 239.984 470.143 239.984C472.39 239.984 474.306 238.544 475.017 236.538H494.517C495.468 236.538 496.24 235.766 496.24 234.814C496.24 233.862 495.468 233.091 494.517 233.091H475.017C474.306 231.085 472.39 229.644 470.143 229.644ZM470.143 236.538C469.193 236.538 468.42 235.765 468.42 234.814C468.42 233.864 469.193 233.091 470.143 233.091C471.093 233.091 471.867 233.864 471.867 234.814C471.867 235.765 471.093 236.538 470.143 236.538Z" fill="white"/>
<path d="M466.774 213.341C466.774 202.695 458.113 194.033 447.467 194.033C436.82 194.033 428.159 202.695 428.159 213.341C428.159 223.987 436.82 232.65 447.467 232.65C458.113 232.65 466.774 223.987 466.774 213.341V213.341ZM447.467 229.203C438.721 229.203 431.606 222.087 431.606 213.341C431.606 204.595 438.721 197.48 447.467 197.48C456.212 197.48 463.328 204.595 463.328 213.341C463.328 222.087 456.212 229.203 447.467 229.203Z" fill="white"/>
<path d="M455.772 209.972L446.422 203.979C445.25 203.227 443.763 203.175 442.541 203.843C441.319 204.512 440.56 205.792 440.56 207.184V219.17C440.56 220.563 441.319 221.843 442.541 222.512C443.112 222.823 443.74 222.978 444.368 222.978C445.083 222.978 445.798 222.777 446.422 222.376L455.773 216.383C456.87 215.68 457.525 214.481 457.525 213.177C457.525 211.873 456.87 210.675 455.772 209.972V209.972ZM453.913 213.481L444.562 219.474C444.443 219.551 444.319 219.555 444.195 219.487C444.07 219.419 444.007 219.312 444.007 219.17V207.184C444.007 207.042 444.07 206.936 444.195 206.867C444.253 206.836 444.311 206.82 444.369 206.82C444.434 206.82 444.499 206.84 444.562 206.881L453.913 212.874C454.049 212.961 454.078 213.087 454.078 213.177C454.078 213.268 454.049 213.393 453.913 213.481Z" fill="white"/>
<path d="M416.272 208.468V225.271C416.272 226.223 417.044 226.995 417.996 226.995C418.948 226.995 419.719 226.223 419.719 225.271V208.468C419.719 207.516 418.948 206.744 417.996 206.744C417.044 206.744 416.272 207.516 416.272 208.468V208.468Z" fill="white"/>
<path d="M419.214 200.193C418.894 199.871 418.449 199.688 417.996 199.688C417.543 199.688 417.098 199.871 416.777 200.193C416.457 200.512 416.272 200.957 416.272 201.412C416.272 201.865 416.457 202.31 416.777 202.63C417.098 202.951 417.543 203.135 417.996 203.135C418.449 203.135 418.894 202.951 419.214 202.63C419.535 202.308 419.719 201.865 419.719 201.412C419.719 200.957 419.535 200.514 419.214 200.193Z" fill="white"/>
</g>
<defs>
<filter id="filter0_ddddii" x="0" y="-233" width="950" height="950" filterUnits="userSpaceOnUse" color-interpolation-filters="sRGB">
<feFlood flood-opacity="0" result="BackgroundImageFix"/>
<feColorMatrix in="SourceAlpha" type="matrix" values="0 0 0 0 0 0 0 0 0 0 0 0 0 0 0 0 0 0 127 0" result="hardAlpha"/>
<feOffset dx="100" dy="100"/>
<feGaussianBlur stdDeviation="125"/>
<feColorMatrix type="matrix" values="0 0 0 0 0.929412 0 0 0 0 0.929412 0 0 0 0 0.929412 0 0 0 0.9 0"/>
<feBlend mode="normal" in2="BackgroundImageFix" result="effect1_dropShadow"/>
<feColorMatrix in="SourceAlpha" type="matrix" values="0 0 0 0 0 0 0 0 0 0 0 0 0 0 0 0 0 0 127 0" result="hardAlpha"/>
<feOffset dx="-100" dy="-100"/>
<feGaussianBlur stdDeviation="100"/>
<feColorMatrix type="matrix" values="0 0 0 0 0.984314 0 0 0 0 0.984314 0 0 0 0 0.984314 0 0 0 0.9 0"/>
<feBlend mode="normal" in2="effect1_dropShadow" result="effect2_dropShadow"/>
<feColorMatrix in="SourceAlpha" type="matrix" values="0 0 0 0 0 0 0 0 0 0 0 0 0 0 0 0 0 0 127 0" result="hardAlpha"/>
<feOffset dx="100" dy="-100"/>
<feGaussianBlur stdDeviation="100"/>
<feColorMatrix type="matrix" values="0 0 0 0 0.929412 0 0 0 0 0.929412 0 0 0 0 0.929412 0 0 0 0.2 0"/>
<feBlend mode="normal" in2="effect2_dropShadow" result="effect3_dropShadow"/>
<feColorMatrix in="SourceAlpha" type="matrix" values="0 0 0 0 0 0 0 0 0 0 0 0 0 0 0 0 0 0 127 0" result="hardAlpha"/>
<feOffset dx="-100" dy="100"/>
<feGaussianBlur stdDeviation="100"/>
<feColorMatrix type="matrix" values="0 0 0 0 0.929412 0 0 0 0 0.929412 0 0 0 0 0.929412 0 0 0 0.2 0"/>
<feBlend mode="normal" in2="effect3_dropShadow" result="effect4_dropShadow"/>
<feBlend mode="normal" in="SourceGraphic" in2="effect4_dropShadow" result="shape"/>
<feColorMatrix in="SourceAlpha" type="matrix" values="0 0 0 0 0 0 0 0 0 0 0 0 0 0 0 0 0 0 127 0" result="hardAlpha"/>
<feOffset dx="-4" dy="-4"/>
<feGaussianBlur stdDeviation="2.5"/>
<feComposite in2="hardAlpha" operator="arithmetic" k2="-1" k3="1"/>
<feColorMatrix type="matrix" values="0 0 0 0 0.929412 0 0 0 0 0.929412 0 0 0 0 0.929412 0 0 0 0.5 0"/>
<feBlend mode="normal" in2="shape" result="effect5_innerShadow"/>
<feColorMatrix in="SourceAlpha" type="matrix" values="0 0 0 0 0 0 0 0 0 0 0 0 0 0 0 0 0 0 127 0" result="hardAlpha"/>
<feOffset dx="4" dy="4"/>
<feGaussianBlur stdDeviation="2.5"/>
<feComposite in2="hardAlpha" operator="arithmetic" k2="-1" k3="1"/>
<feColorMatrix type="matrix" values="0 0 0 0 0.984314 0 0 0 0 0.984314 0 0 0 0 0.984314 0 0 0 0.3 0"/>
<feBlend mode="normal" in2="effect5_innerShadow" result="effect6_innerShadow"/>
</filter>
<clipPath id="clip0">
<rect width="88.24" height="88.24" fill="white" transform="translate(408 175)"/>
</clipPath>
</defs>
</svg>
