<svg width="950" height="600" viewBox="0 0 950 600" fill="none" xmlns="http://www.w3.org/2000/svg">
<g filter="url(#filter0_ddddii)">
<circle cx="450" cy="271" r="150" fill="#F4F4F4" fill-opacity="0.4"/>
</g>
<circle cx="451.765" cy="272.764" r="88.2353" fill="#F0471D"/>
<path d="M489.443 288.147L483.839 297.853C483.506 298.43 482.798 298.674 482.18 298.424L473.932 295.094C473.247 294.818 472.916 294.039 473.192 293.354C473.469 292.668 474.248 292.337 474.934 292.614L482.104 295.508L486.544 287.816L480.46 283.06C480.024 282.719 479.843 282.144 480.005 281.614C481.691 276.128 481.755 270.082 480.005 264.387C479.843 263.857 480.024 263.281 480.46 262.94L486.544 258.184L482.104 250.492L474.934 253.387C474.419 253.594 473.831 253.463 473.453 253.057C469.426 248.727 464.271 245.748 458.545 244.442C458.004 244.318 457.595 243.874 457.518 243.324L456.441 235.675H447.559L446.482 243.324C446.404 243.873 445.996 244.318 445.455 244.441C439.728 245.748 434.573 248.727 430.546 253.057C430.169 253.463 429.58 253.594 429.066 253.386L421.896 250.492L417.455 258.184L423.539 262.94C423.976 263.281 424.157 263.856 423.994 264.386C422.309 269.872 422.244 275.918 423.994 281.613C424.157 282.143 423.976 282.719 423.539 283.06L417.455 287.816L421.896 295.508L429.066 292.613C429.58 292.406 430.169 292.537 430.546 292.943C434.573 297.273 439.729 300.252 445.455 301.558C445.996 301.682 446.404 302.126 446.482 302.676L447.559 310.324H456.441L457.518 302.676C457.595 302.127 458.004 301.682 458.545 301.558C461.68 300.843 464.661 299.618 467.403 297.919C468.031 297.531 468.856 297.724 469.245 298.352C469.634 298.98 469.44 299.805 468.812 300.194C466.082 301.885 463.135 303.146 460.041 303.948L458.928 311.849C458.835 312.509 458.27 313 457.603 313H446.397C445.73 313 445.165 312.509 445.072 311.849L443.959 303.948C438.365 302.5 433.304 299.575 429.227 295.433L421.82 298.424C421.202 298.673 420.494 298.429 420.161 297.852L414.557 288.147C414.224 287.57 414.367 286.835 414.892 286.424L421.178 281.51C419.649 275.961 419.648 270.04 421.178 264.489L414.892 259.575C414.367 259.164 414.224 258.429 414.557 257.852L420.161 248.147C420.494 247.57 421.201 247.326 421.82 247.575L429.227 250.566C433.304 246.424 438.365 243.499 443.959 242.051L445.072 234.15C445.165 233.491 445.73 233 446.397 233H457.603C458.27 233 458.835 233.491 458.928 234.151L460.04 242.052C465.635 243.5 470.696 246.424 474.772 250.566L482.18 247.576C482.798 247.327 483.506 247.57 483.839 248.148L489.443 257.853C489.776 258.43 489.633 259.165 489.108 259.575L482.822 264.49C484.351 270.039 484.351 275.96 482.822 281.511L489.108 286.425C489.633 286.835 489.776 287.57 489.443 288.147V288.147ZM449.809 279.363L456.497 267.993C456.872 267.356 456.659 266.536 456.022 266.162C455.386 265.788 454.566 266 454.191 266.637L447.503 278.007C447.128 278.644 447.341 279.464 447.977 279.838C448.614 280.213 449.434 280 449.809 279.363V279.363ZM444.585 267.872C444.063 267.35 443.216 267.35 442.694 267.872L438.511 272.054C437.989 272.576 437.989 273.423 438.511 273.946L442.694 278.128C443.216 278.651 444.063 278.65 444.585 278.128C445.108 277.606 445.108 276.759 444.585 276.236L441.349 273L444.585 269.764C445.108 269.241 445.108 268.394 444.585 267.872ZM460.193 278.52C460.535 278.52 460.878 278.389 461.139 278.128L465.321 273.946C465.843 273.424 465.844 272.577 465.321 272.054L461.139 267.872C460.617 267.35 459.77 267.35 459.247 267.872C458.725 268.394 458.725 269.241 459.247 269.764L462.484 273L459.247 276.236C458.402 277.082 459.012 278.52 460.193 278.52ZM444.172 294.35C446.725 295.287 449.372 295.753 452.013 295.752C468.537 295.752 479.612 278.498 472.632 263.438C467.359 252.061 453.814 247.095 442.437 252.368C427.974 259.071 424.695 278.344 436.262 289.423C436.796 289.934 437.643 289.916 438.154 289.382C438.665 288.849 438.646 288.002 438.113 287.491C427.913 277.722 430.794 260.713 443.562 254.795C453.601 250.143 465.552 254.524 470.204 264.563C474.857 274.601 470.475 286.552 460.437 291.205C455.574 293.459 450.124 293.684 445.092 291.839C444.399 291.585 443.63 291.941 443.376 292.634C443.122 293.328 443.478 294.096 444.172 294.35V294.35Z" fill="white"/>
<defs>
<filter id="filter0_ddddii" x="0" y="-179" width="950" height="950" filterUnits="userSpaceOnUse" color-interpolation-filters="sRGB">
<feFlood flood-opacity="0" result="BackgroundImageFix"/>
<feColorMatrix in="SourceAlpha" type="matrix" values="0 0 0 0 0 0 0 0 0 0 0 0 0 0 0 0 0 0 127 0" result="hardAlpha"/>
<feOffset dx="100" dy="100"/>
<feGaussianBlur stdDeviation="125"/>
<feColorMatrix type="matrix" values="0 0 0 0 0.929412 0 0 0 0 0.929412 0 0 0 0 0.929412 0 0 0 0.9 0"/>
<feBlend mode="normal" in2="BackgroundImageFix" result="effect1_dropShadow"/>
<feColorMatrix in="SourceAlpha" type="matrix" values="0 0 0 0 0 0 0 0 0 0 0 0 0 0 0 0 0 0 127 0" result="hardAlpha"/>
<feOffset dx="-100" dy="-100"/>
<feGaussianBlur stdDeviation="100"/>
<feColorMatrix type="matrix" values="0 0 0 0 0.984314 0 0 0 0 0.984314 0 0 0 0 0.984314 0 0 0 0.9 0"/>
<feBlend mode="normal" in2="effect1_dropShadow" result="effect2_dropShadow"/>
<feColorMatrix in="SourceAlpha" type="matrix" values="0 0 0 0 0 0 0 0 0 0 0 0 0 0 0 0 0 0 127 0" result="hardAlpha"/>
<feOffset dx="100" dy="-100"/>
<feGaussianBlur stdDeviation="100"/>
<feColorMatrix type="matrix" values="0 0 0 0 0.929412 0 0 0 0 0.929412 0 0 0 0 0.929412 0 0 0 0.2 0"/>
<feBlend mode="normal" in2="effect2_dropShadow" result="effect3_dropShadow"/>
<feColorMatrix in="SourceAlpha" type="matrix" values="0 0 0 0 0 0 0 0 0 0 0 0 0 0 0 0 0 0 127 0" result="hardAlpha"/>
<feOffset dx="-100" dy="100"/>
<feGaussianBlur stdDeviation="100"/>
<feColorMatrix type="matrix" values="0 0 0 0 0.929412 0 0 0 0 0.929412 0 0 0 0 0.929412 0 0 0 0.2 0"/>
<feBlend mode="normal" in2="effect3_dropShadow" result="effect4_dropShadow"/>
<feBlend mode="normal" in="SourceGraphic" in2="effect4_dropShadow" result="shape"/>
<feColorMatrix in="SourceAlpha" type="matrix" values="0 0 0 0 0 0 0 0 0 0 0 0 0 0 0 0 0 0 127 0" result="hardAlpha"/>
<feOffset dx="-4" dy="-4"/>
<feGaussianBlur stdDeviation="2.5"/>
<feComposite in2="hardAlpha" operator="arithmetic" k2="-1" k3="1"/>
<feColorMatrix type="matrix" values="0 0 0 0 0.929412 0 0 0 0 0.929412 0 0 0 0 0.929412 0 0 0 0.5 0"/>
<feBlend mode="normal" in2="shape" result="effect5_innerShadow"/>
<feColorMatrix in="SourceAlpha" type="matrix" values="0 0 0 0 0 0 0 0 0 0 0 0 0 0 0 0 0 0 127 0" result="hardAlpha"/>
<feOffset dx="4" dy="4"/>
<feGaussianBlur stdDeviation="2.5"/>
<feComposite in2="hardAlpha" operator="arithmetic" k2="-1" k3="1"/>
<feColorMatrix type="matrix" values="0 0 0 0 0.984314 0 0 0 0 0.984314 0 0 0 0 0.984314 0 0 0 0.3 0"/>
<feBlend mode="normal" in2="effect5_innerShadow" result="effect6_innerShadow"/>
</filter>
</defs>
</svg>
