<svg width="950" height="600" viewBox="0 0 950 600" fill="none" xmlns="http://www.w3.org/2000/svg">
<g filter="url(#filter0_ddddii)">
<circle cx="450" cy="271" r="150" fill="#F4F4F4" fill-opacity="0.4"/>
</g>
<circle cx="451.765" cy="272.764" r="88.2353" fill="#FFD058"/>
<g clip-path="url(#clip0)">
<path d="M486.846 275.695C486.127 268.471 482.9 261.659 477.757 256.516C473.362 252.121 467.982 249.297 462.322 248.041V244.071C464.634 243.496 466.352 241.403 466.352 238.916C466.352 235.987 463.969 233.604 461.04 233.604H449.79C446.86 233.604 444.477 235.987 444.477 238.916C444.477 241.403 446.195 243.496 448.507 244.071V248.052C442.864 249.314 437.503 252.134 433.12 256.517C432.161 257.476 431.276 258.482 430.467 259.527C430.428 259.524 430.388 259.521 430.348 259.521H419.214C418.351 259.521 417.651 260.221 417.651 261.084C417.651 261.947 418.351 262.646 419.214 262.646H428.341C427.195 264.564 426.271 266.579 425.568 268.652H408.563C407.7 268.652 407 269.352 407 270.215C407 271.078 407.7 271.777 408.563 271.777H424.685C424.235 273.754 423.977 275.766 423.91 277.783H417C416.137 277.783 415.438 278.483 415.438 279.346C415.438 280.209 416.137 280.908 417 280.908H423.96C424.092 282.931 424.417 284.943 424.935 286.914H414.813C413.95 286.914 413.25 287.614 413.25 288.477C413.25 289.34 413.95 290.039 414.813 290.039H425.932C427.465 294.094 429.861 297.895 433.12 301.154C438.268 306.302 445.086 309.53 452.318 310.245C453.351 310.346 454.384 310.397 455.415 310.397C461.512 310.397 467.532 308.632 472.64 305.306C473.363 304.835 473.568 303.867 473.097 303.144C472.626 302.421 471.658 302.216 470.935 302.687C459.754 309.968 444.78 308.394 435.33 298.944C424.242 287.856 424.242 269.815 435.33 258.726C446.417 247.639 464.459 247.639 475.547 258.726C484.985 268.164 486.567 283.125 479.311 294.301C478.84 295.025 479.046 295.992 479.77 296.462C480.494 296.932 481.461 296.727 481.931 296.003C485.809 290.032 487.554 282.82 486.846 275.695ZM447.602 238.916C447.602 237.71 448.583 236.729 449.79 236.729H461.04C462.246 236.729 463.227 237.71 463.227 238.916C463.227 240.123 462.246 241.104 461.04 241.104H460.759H450.07H449.79C448.583 241.104 447.602 240.122 447.602 238.916ZM451.632 247.515V244.229H459.197V247.51C456.685 247.211 454.144 247.213 451.632 247.515Z" fill="white"/>
<path d="M476.652 298.486C476.24 298.486 475.838 298.653 475.548 298.943C475.256 299.234 475.09 299.637 475.09 300.048C475.09 300.459 475.256 300.862 475.548 301.153C475.838 301.445 476.24 301.611 476.652 301.611C477.063 301.611 477.465 301.445 477.757 301.153C478.048 300.862 478.215 300.459 478.215 300.048C478.215 299.637 478.048 299.234 477.757 298.943C477.465 298.653 477.063 298.486 476.652 298.486Z" fill="white"/>
<path d="M455.439 254.595C442.073 254.595 431.199 265.469 431.199 278.835C431.199 292.2 442.073 303.074 455.439 303.074C468.804 303.074 479.678 292.2 479.678 278.835C479.678 265.469 468.804 254.595 455.439 254.595ZM455.439 299.949C443.796 299.949 434.324 290.477 434.324 278.835C434.324 267.192 443.796 257.721 455.439 257.721C467.081 257.721 476.553 267.192 476.553 278.835C476.553 290.477 467.081 299.949 455.439 299.949Z" fill="white"/>
<path d="M465.322 266.741L457.583 274.48C456.936 274.16 456.208 273.98 455.438 273.98C454.669 273.98 453.941 274.16 453.294 274.48L449.83 271.017C449.22 270.407 448.231 270.407 447.62 271.017C447.01 271.627 447.01 272.616 447.62 273.226L451.084 276.69C450.764 277.337 450.583 278.065 450.583 278.835C450.583 281.512 452.761 283.69 455.438 283.69C458.116 283.69 460.294 281.512 460.294 278.835C460.294 278.065 460.113 277.337 459.793 276.69L467.305 269.178L467.532 268.951C468.142 268.341 468.142 267.351 467.532 266.741C466.922 266.131 465.933 266.131 465.322 266.741ZM455.438 280.565C454.484 280.565 453.708 279.789 453.708 278.835C453.708 277.881 454.484 277.105 455.438 277.105C456.393 277.105 457.169 277.881 457.169 278.835C457.169 279.789 456.393 280.565 455.438 280.565Z" fill="white"/>
<path d="M472.145 277.291H470.697C469.834 277.291 469.135 277.991 469.135 278.854C469.135 279.717 469.834 280.416 470.697 280.416H472.145C473.008 280.416 473.707 279.717 473.707 278.854C473.707 277.991 473.008 277.291 472.145 277.291Z" fill="white"/>
<path d="M440.179 277.253H438.732C437.869 277.253 437.169 277.953 437.169 278.816C437.169 279.679 437.869 280.378 438.732 280.378H440.179C441.042 280.378 441.742 279.679 441.742 278.816C441.742 277.953 441.042 277.253 440.179 277.253Z" fill="white"/>
<path d="M455.457 265.139C456.32 265.139 457.02 264.439 457.02 263.576V262.129C457.02 261.266 456.32 260.566 455.457 260.566C454.594 260.566 453.895 261.266 453.895 262.129V263.576C453.895 264.439 454.594 265.139 455.457 265.139Z" fill="white"/>
<path d="M455.419 292.531C454.557 292.531 453.857 293.231 453.857 294.094V295.541C453.857 296.404 454.557 297.104 455.419 297.104C456.282 297.104 456.982 296.404 456.982 295.541V294.094C456.982 293.231 456.282 292.531 455.419 292.531Z" fill="white"/>
<path d="M408.562 286.913C408.152 286.913 407.748 287.081 407.458 287.371C407.167 287.662 407 288.065 407 288.476C407 288.888 407.167 289.29 407.458 289.581C407.749 289.871 408.152 290.038 408.562 290.038C408.973 290.038 409.377 289.871 409.667 289.581C409.958 289.29 410.125 288.887 410.125 288.476C410.125 288.065 409.958 287.662 409.667 287.371C409.377 287.081 408.973 286.913 408.562 286.913Z" fill="white"/>
</g>
<defs>
<filter id="filter0_ddddii" x="0" y="-179" width="950" height="950" filterUnits="userSpaceOnUse" color-interpolation-filters="sRGB">
<feFlood flood-opacity="0" result="BackgroundImageFix"/>
<feColorMatrix in="SourceAlpha" type="matrix" values="0 0 0 0 0 0 0 0 0 0 0 0 0 0 0 0 0 0 127 0" result="hardAlpha"/>
<feOffset dx="100" dy="100"/>
<feGaussianBlur stdDeviation="125"/>
<feColorMatrix type="matrix" values="0 0 0 0 0.929412 0 0 0 0 0.929412 0 0 0 0 0.929412 0 0 0 0.9 0"/>
<feBlend mode="normal" in2="BackgroundImageFix" result="effect1_dropShadow"/>
<feColorMatrix in="SourceAlpha" type="matrix" values="0 0 0 0 0 0 0 0 0 0 0 0 0 0 0 0 0 0 127 0" result="hardAlpha"/>
<feOffset dx="-100" dy="-100"/>
<feGaussianBlur stdDeviation="100"/>
<feColorMatrix type="matrix" values="0 0 0 0 0.984314 0 0 0 0 0.984314 0 0 0 0 0.984314 0 0 0 0.9 0"/>
<feBlend mode="normal" in2="effect1_dropShadow" result="effect2_dropShadow"/>
<feColorMatrix in="SourceAlpha" type="matrix" values="0 0 0 0 0 0 0 0 0 0 0 0 0 0 0 0 0 0 127 0" result="hardAlpha"/>
<feOffset dx="100" dy="-100"/>
<feGaussianBlur stdDeviation="100"/>
<feColorMatrix type="matrix" values="0 0 0 0 0.929412 0 0 0 0 0.929412 0 0 0 0 0.929412 0 0 0 0.2 0"/>
<feBlend mode="normal" in2="effect2_dropShadow" result="effect3_dropShadow"/>
<feColorMatrix in="SourceAlpha" type="matrix" values="0 0 0 0 0 0 0 0 0 0 0 0 0 0 0 0 0 0 127 0" result="hardAlpha"/>
<feOffset dx="-100" dy="100"/>
<feGaussianBlur stdDeviation="100"/>
<feColorMatrix type="matrix" values="0 0 0 0 0.929412 0 0 0 0 0.929412 0 0 0 0 0.929412 0 0 0 0.2 0"/>
<feBlend mode="normal" in2="effect3_dropShadow" result="effect4_dropShadow"/>
<feBlend mode="normal" in="SourceGraphic" in2="effect4_dropShadow" result="shape"/>
<feColorMatrix in="SourceAlpha" type="matrix" values="0 0 0 0 0 0 0 0 0 0 0 0 0 0 0 0 0 0 127 0" result="hardAlpha"/>
<feOffset dx="-4" dy="-4"/>
<feGaussianBlur stdDeviation="2.5"/>
<feComposite in2="hardAlpha" operator="arithmetic" k2="-1" k3="1"/>
<feColorMatrix type="matrix" values="0 0 0 0 0.929412 0 0 0 0 0.929412 0 0 0 0 0.929412 0 0 0 0.5 0"/>
<feBlend mode="normal" in2="shape" result="effect5_innerShadow"/>
<feColorMatrix in="SourceAlpha" type="matrix" values="0 0 0 0 0 0 0 0 0 0 0 0 0 0 0 0 0 0 127 0" result="hardAlpha"/>
<feOffset dx="4" dy="4"/>
<feGaussianBlur stdDeviation="2.5"/>
<feComposite in2="hardAlpha" operator="arithmetic" k2="-1" k3="1"/>
<feColorMatrix type="matrix" values="0 0 0 0 0.984314 0 0 0 0 0.984314 0 0 0 0 0.984314 0 0 0 0.3 0"/>
<feBlend mode="normal" in2="effect5_innerShadow" result="effect6_innerShadow"/>
</filter>
<clipPath id="clip0">
<rect width="80" height="80" fill="white" transform="translate(407 232)"/>
</clipPath>
</defs>
</svg>
