<svg width="950" height="600" viewBox="0 0 950 600" fill="none" xmlns="http://www.w3.org/2000/svg">
<g filter="url(#filter0_ddddii)">
<circle cx="450" cy="271" r="150" fill="#F4F4F4" fill-opacity="0.4"/>
</g>
<circle cx="451.765" cy="272.764" r="88.2353" fill="#589BFF"/>
<path d="M451.86 243.166C452.729 243.166 453.434 242.461 453.434 241.592V234.574C453.434 233.705 452.729 233 451.86 233C450.991 233 450.287 233.705 450.287 234.574V241.592C450.287 242.461 450.991 243.166 451.86 243.166Z" fill="white"/>
<path d="M490.325 287.06L487.545 284.288C486.556 283.301 485.238 282.756 483.834 282.756C482.936 282.756 482.074 282.98 481.31 283.399L476.072 278.166L476.327 277.911C478.452 275.782 478.451 272.322 476.327 270.2C475.567 269.439 474.62 268.932 473.587 268.719C473.729 268.228 473.804 267.714 473.804 267.188C473.804 265.726 473.237 264.355 472.209 263.332C471.449 262.571 470.502 262.064 469.469 261.85C469.612 261.36 469.687 260.846 469.687 260.319C469.687 258.858 469.119 257.487 468.089 256.462C467.312 255.685 466.356 255.194 465.352 254.985C465.889 253.134 465.43 251.051 463.974 249.592C462.762 248.385 461.117 247.866 459.532 248.034L449.152 246.07C447.568 245.769 445.591 245.571 444.343 246.709C444.265 246.781 444.184 246.864 444.105 246.956C442.17 246.25 439.913 246.67 438.364 248.218C437.336 249.245 436.77 250.615 436.77 252.076C436.77 252.602 436.844 253.116 436.986 253.607C435.955 253.82 435.009 254.327 434.252 255.085C433.222 256.111 432.654 257.479 432.653 258.938C432.652 259.466 432.727 259.981 432.87 260.474C431.838 260.686 430.891 261.192 430.132 261.95C429.102 262.979 428.535 264.35 428.535 265.81C428.535 266.928 428.869 267.994 429.488 268.894C428.706 269.159 427.991 269.599 427.392 270.198C425.265 272.322 425.264 275.782 427.393 277.915L427.647 278.168L422.408 283.397C420.461 282.481 418.062 282.824 416.455 284.429L413.674 287.203C412.684 288.191 412.14 289.509 412.14 290.914C412.14 292.319 412.684 293.638 413.674 294.626L417.145 298.093C417.76 298.707 418.757 298.707 419.371 298.092C419.985 297.477 419.984 296.481 419.369 295.866L415.898 292.399C415.504 292.006 415.287 291.478 415.287 290.914C415.287 290.35 415.504 289.823 415.897 289.43L418.679 286.656C419.374 285.962 420.437 285.859 421.245 286.342C421.302 286.427 421.368 286.508 421.443 286.584C421.578 286.719 421.732 286.823 421.895 286.898L437.847 302.827C437.923 302.992 438.027 303.148 438.163 303.284C438.295 303.416 438.446 303.518 438.606 303.594C438.943 303.975 439.13 304.462 439.13 304.982C439.13 305.546 438.913 306.073 438.519 306.467L435.74 309.242C434.919 310.06 433.583 310.06 432.764 309.245L429.293 305.773C428.679 305.159 427.682 305.159 427.068 305.773C426.453 306.388 426.453 307.384 427.068 307.999L430.542 311.473C431.564 312.491 432.907 313 434.25 313C435.594 313 436.939 312.49 437.962 311.471L440.743 308.694C441.732 307.705 442.277 306.387 442.277 304.982C442.277 303.979 441.998 303.021 441.48 302.195L447.376 296.306C447.382 296.3 447.388 296.293 447.395 296.287C448.07 295.589 449.95 295.719 451.768 295.846C453.06 295.936 454.501 296.035 455.908 295.873L462.365 302.322C461.946 303.085 461.723 303.946 461.723 304.843C461.723 306.246 462.268 307.564 463.257 308.552L466.038 311.329C467.027 312.317 468.345 312.861 469.749 312.861C471.153 312.861 472.471 312.317 473.46 311.329L490.326 294.484C491.315 293.496 491.86 292.178 491.86 290.773C491.86 289.367 491.315 288.049 490.325 287.06V287.06ZM448.566 249.162L455.392 250.454L451.306 254.538C450.674 254.234 449.808 253.668 448.857 252.759C447.557 251.514 446.626 250.078 446.541 249.181C446.541 249.181 446.541 249.181 446.541 249.18C446.541 249.18 446.541 249.18 446.541 249.18C446.535 249.115 446.533 249.064 446.534 249.025C446.74 248.975 447.287 248.919 448.566 249.162ZM440.588 250.445C441.385 249.648 442.623 249.556 443.524 250.166C444.035 252.307 445.86 254.247 446.682 255.033C447.291 255.615 449.244 257.361 451.215 257.841C451.482 258.224 451.627 258.68 451.627 259.161C451.627 259.78 451.389 260.359 450.955 260.793C450.522 261.227 449.942 261.466 449.321 261.466C448.7 261.466 448.12 261.227 447.685 260.791L447.685 260.791L447.684 260.79L440.588 253.706C440.155 253.274 439.917 252.695 439.917 252.076C439.917 251.456 440.155 250.877 440.588 250.445V250.445ZM436.476 257.311C436.909 256.878 437.488 256.639 438.108 256.639C438.729 256.639 439.31 256.878 439.746 257.314L445.46 263.017C446.36 263.918 446.36 265.384 445.463 266.283C445.028 266.716 444.446 266.955 443.824 266.955C443.202 266.955 442.62 266.716 442.187 266.284L442.187 266.284L437.851 261.95C437.845 261.943 437.837 261.937 437.83 261.93L436.474 260.575C436.039 260.14 435.799 259.56 435.8 258.941C435.801 258.324 436.039 257.746 436.476 257.311V257.311ZM432.356 264.177C432.789 263.744 433.37 263.506 433.992 263.506C434.608 263.506 435.184 263.741 435.615 264.166L439.964 268.512C440.397 268.944 440.636 269.523 440.636 270.141C440.636 270.76 440.397 271.339 439.962 271.772C439.529 272.205 438.949 272.443 438.328 272.443C437.707 272.443 437.125 272.204 436.691 271.772L435.115 270.198C435.114 270.197 435.114 270.197 435.114 270.197L432.356 267.443C431.922 267.008 431.682 266.428 431.682 265.81C431.682 265.191 431.922 264.611 432.356 264.177V264.177ZM429.616 272.425C430.051 271.99 430.632 271.751 431.253 271.751C431.874 271.751 432.455 271.99 432.89 272.424L434.469 274.001C434.902 274.433 435.141 275.011 435.141 275.63C435.141 276.249 434.902 276.827 434.465 277.263C434.032 277.696 433.452 277.935 432.832 277.935C432.211 277.935 431.631 277.696 431.195 277.259L430.997 277.063C430.994 277.06 430.992 277.057 430.99 277.055C430.987 277.052 430.984 277.049 430.981 277.046L429.617 275.688C428.717 274.786 428.717 273.323 429.616 272.425ZM461.683 290.309C461.069 289.694 460.073 289.693 459.458 290.307L458.058 291.706C456.728 293.036 454.317 292.868 451.986 292.707C449.455 292.531 446.837 292.349 445.143 294.088L439.347 299.877L424.853 285.404L429.982 280.284C430.83 280.804 431.808 281.082 432.832 281.082C434.294 281.082 435.666 280.516 436.69 279.489C437.721 278.463 438.289 277.092 438.289 275.63C438.289 275.617 438.288 275.603 438.288 275.59C438.302 275.59 438.315 275.591 438.329 275.591C439.789 275.591 441.159 275.025 442.185 274.001C443.216 272.974 443.784 271.604 443.784 270.142C443.784 270.128 443.783 270.115 443.783 270.101C443.797 270.101 443.81 270.102 443.824 270.102C445.284 270.102 446.655 269.538 447.688 268.509C448.759 267.436 449.29 266.022 449.279 264.612C449.294 264.612 449.308 264.613 449.322 264.613C450.784 264.613 452.155 264.046 453.181 263.018C454.209 261.991 454.775 260.621 454.775 259.161C454.775 258.139 454.497 257.162 453.979 256.316L458.475 251.822C458.81 251.489 459.223 251.279 459.656 251.193C459.703 251.188 459.749 251.18 459.795 251.171C460.49 251.075 461.219 251.29 461.751 251.819C462.65 252.72 462.65 254.187 461.754 255.085L460.385 256.449C460.38 256.453 460.375 256.457 460.371 256.462L458.794 258.036C458.179 258.65 458.178 259.646 458.792 260.261C459.407 260.876 460.403 260.877 461.018 260.263L462.392 258.89C462.393 258.89 462.393 258.889 462.393 258.889L462.601 258.682C463.503 257.788 464.965 257.79 465.867 258.69C466.3 259.122 466.539 259.7 466.539 260.319C466.539 260.938 466.3 261.516 465.863 261.952L464.486 263.331C464.486 263.332 464.486 263.332 464.486 263.332L462.909 264.903C462.293 265.516 462.291 266.512 462.904 267.128C463.518 267.744 464.514 267.746 465.13 267.132L466.714 265.555C467.147 265.121 467.727 264.882 468.347 264.882C468.968 264.882 469.549 265.121 469.985 265.558C470.418 265.99 470.657 266.569 470.657 267.187C470.657 267.806 470.418 268.384 469.982 268.819L467.237 271.565C466.622 272.18 466.623 273.176 467.237 273.791C467.544 274.098 467.947 274.251 468.35 274.251C468.752 274.251 469.155 274.097 469.462 273.79L470.808 272.444C470.816 272.437 470.824 272.43 470.832 272.423C471.264 271.989 471.845 271.75 472.465 271.75C473.086 271.75 473.666 271.989 474.101 272.424C475 273.322 474.999 274.786 474.101 275.686L472.733 277.052C472.732 277.053 472.732 277.053 472.731 277.054C472.731 277.054 472.73 277.055 472.73 277.055L470.559 279.224C469.944 279.838 469.943 280.835 470.557 281.449C470.864 281.757 471.268 281.911 471.671 281.911C472.073 281.911 472.475 281.758 472.783 281.451L473.845 280.39L478.935 285.474L464.442 299.95L459.249 294.763C459.611 294.53 459.957 294.256 460.283 293.931L461.682 292.534C462.297 291.92 462.298 290.924 461.683 290.309V290.309ZM488.102 292.257L471.236 309.103C470.842 309.497 470.313 309.714 469.749 309.714C469.185 309.714 468.657 309.497 468.262 309.103L465.481 306.325C465.087 305.932 464.87 305.405 464.87 304.843C464.87 304.28 465.087 303.754 465.481 303.36L482.347 286.515C482.742 286.12 483.269 285.903 483.834 285.903C484.398 285.903 484.927 286.12 485.322 286.516L488.102 289.288C488.496 289.681 488.713 290.208 488.713 290.772C488.713 291.337 488.496 291.864 488.102 292.257V292.257Z" fill="white"/>
<path d="M430.966 241.839C431.273 242.146 431.675 242.299 432.077 242.299C432.48 242.299 432.884 242.145 433.191 241.837C433.805 241.222 433.804 240.225 433.189 239.611L427.455 233.889C426.84 233.275 425.843 233.276 425.229 233.891C424.615 234.506 424.616 235.502 425.232 236.116L430.966 241.839Z" fill="white"/>
<path d="M471.644 242.299C472.046 242.299 472.449 242.145 472.756 241.838L478.486 236.116C479.1 235.502 479.101 234.505 478.487 233.89C477.873 233.276 476.877 233.275 476.262 233.889L470.532 239.612C469.917 240.226 469.916 241.222 470.531 241.837C470.838 242.145 471.241 242.299 471.644 242.299Z" fill="white"/>
<path d="M421.816 300.688C421.206 301.308 421.215 302.304 421.835 302.913L421.839 302.918C422.145 303.218 422.542 303.368 422.939 303.368C423.346 303.368 423.754 303.21 424.062 302.897C424.671 302.277 424.661 301.278 424.041 300.669C423.421 300.06 422.425 300.068 421.816 300.688V300.688Z" fill="white"/>
<path d="M465.532 288.042C465.772 288.042 466.014 287.987 466.242 287.872C467.018 287.481 467.33 286.535 466.939 285.759C466.547 284.983 465.601 284.671 464.825 285.062L464.816 285.067C464.04 285.458 463.733 286.402 464.124 287.178C464.401 287.726 464.956 288.042 465.532 288.042V288.042Z" fill="white"/>
<defs>
<filter id="filter0_ddddii" x="0" y="-179" width="950" height="950" filterUnits="userSpaceOnUse" color-interpolation-filters="sRGB">
<feFlood flood-opacity="0" result="BackgroundImageFix"/>
<feColorMatrix in="SourceAlpha" type="matrix" values="0 0 0 0 0 0 0 0 0 0 0 0 0 0 0 0 0 0 127 0" result="hardAlpha"/>
<feOffset dx="100" dy="100"/>
<feGaussianBlur stdDeviation="125"/>
<feColorMatrix type="matrix" values="0 0 0 0 0.929412 0 0 0 0 0.929412 0 0 0 0 0.929412 0 0 0 0.9 0"/>
<feBlend mode="normal" in2="BackgroundImageFix" result="effect1_dropShadow"/>
<feColorMatrix in="SourceAlpha" type="matrix" values="0 0 0 0 0 0 0 0 0 0 0 0 0 0 0 0 0 0 127 0" result="hardAlpha"/>
<feOffset dx="-100" dy="-100"/>
<feGaussianBlur stdDeviation="100"/>
<feColorMatrix type="matrix" values="0 0 0 0 0.984314 0 0 0 0 0.984314 0 0 0 0 0.984314 0 0 0 0.9 0"/>
<feBlend mode="normal" in2="effect1_dropShadow" result="effect2_dropShadow"/>
<feColorMatrix in="SourceAlpha" type="matrix" values="0 0 0 0 0 0 0 0 0 0 0 0 0 0 0 0 0 0 127 0" result="hardAlpha"/>
<feOffset dx="100" dy="-100"/>
<feGaussianBlur stdDeviation="100"/>
<feColorMatrix type="matrix" values="0 0 0 0 0.929412 0 0 0 0 0.929412 0 0 0 0 0.929412 0 0 0 0.2 0"/>
<feBlend mode="normal" in2="effect2_dropShadow" result="effect3_dropShadow"/>
<feColorMatrix in="SourceAlpha" type="matrix" values="0 0 0 0 0 0 0 0 0 0 0 0 0 0 0 0 0 0 127 0" result="hardAlpha"/>
<feOffset dx="-100" dy="100"/>
<feGaussianBlur stdDeviation="100"/>
<feColorMatrix type="matrix" values="0 0 0 0 0.929412 0 0 0 0 0.929412 0 0 0 0 0.929412 0 0 0 0.2 0"/>
<feBlend mode="normal" in2="effect3_dropShadow" result="effect4_dropShadow"/>
<feBlend mode="normal" in="SourceGraphic" in2="effect4_dropShadow" result="shape"/>
<feColorMatrix in="SourceAlpha" type="matrix" values="0 0 0 0 0 0 0 0 0 0 0 0 0 0 0 0 0 0 127 0" result="hardAlpha"/>
<feOffset dx="-4" dy="-4"/>
<feGaussianBlur stdDeviation="2.5"/>
<feComposite in2="hardAlpha" operator="arithmetic" k2="-1" k3="1"/>
<feColorMatrix type="matrix" values="0 0 0 0 0.929412 0 0 0 0 0.929412 0 0 0 0 0.929412 0 0 0 0.5 0"/>
<feBlend mode="normal" in2="shape" result="effect5_innerShadow"/>
<feColorMatrix in="SourceAlpha" type="matrix" values="0 0 0 0 0 0 0 0 0 0 0 0 0 0 0 0 0 0 127 0" result="hardAlpha"/>
<feOffset dx="4" dy="4"/>
<feGaussianBlur stdDeviation="2.5"/>
<feComposite in2="hardAlpha" operator="arithmetic" k2="-1" k3="1"/>
<feColorMatrix type="matrix" values="0 0 0 0 0.984314 0 0 0 0 0.984314 0 0 0 0 0.984314 0 0 0 0.3 0"/>
<feBlend mode="normal" in2="effect5_innerShadow" result="effect6_innerShadow"/>
</filter>
</defs>
</svg>
