<svg width="950" height="600" viewBox="0 0 950 600" fill="none" xmlns="http://www.w3.org/2000/svg">
<g filter="url(#filter0_ddddii)">
<circle cx="450" cy="271" r="150" fill="#F4F4F4" fill-opacity="0.4"/>
</g>
<circle cx="451.765" cy="272.764" r="88.2353" fill="#30CC2D"/>
<g clip-path="url(#clip0)">
<path d="M453.044 276.661C452.896 276.629 452.745 276.623 452.595 276.645C451.092 276.47 449.959 275.199 449.956 273.687C449.956 272.962 449.369 272.375 448.644 272.375C447.919 272.375 447.332 272.962 447.332 273.687C447.336 276.212 449.025 278.424 451.459 279.092V280.404C451.459 281.129 452.047 281.717 452.772 281.717C453.496 281.717 454.084 281.129 454.084 280.404V279.172C456.894 278.583 458.804 275.966 458.509 273.11C458.213 270.254 455.807 268.084 452.936 268.084C451.29 268.084 449.956 266.75 449.956 265.104C449.956 263.459 451.29 262.125 452.936 262.125C454.581 262.125 455.915 263.459 455.915 265.104C455.915 265.829 456.503 266.416 457.227 266.416C457.952 266.416 458.539 265.829 458.539 265.104C458.536 262.453 456.678 260.166 454.084 259.619V258.425C454.084 257.7 453.496 257.112 452.772 257.112C452.047 257.112 451.459 257.7 451.459 258.425V259.699C448.752 260.438 447.009 263.067 447.382 265.849C447.755 268.631 450.128 270.708 452.936 270.707C454.559 270.707 455.884 272.008 455.913 273.631C455.943 275.254 454.667 276.602 453.044 276.661V276.661Z" fill="white"/>
<path d="M433.907 269.496C433.907 280.006 442.426 288.525 452.935 288.525C463.445 288.525 471.964 280.006 471.964 269.496C471.964 258.987 463.445 250.468 452.935 250.468C442.431 250.479 433.919 258.992 433.907 269.496ZM452.935 253.092C461.995 253.092 469.34 260.436 469.34 269.496C469.34 278.556 461.995 285.901 452.935 285.901C443.875 285.901 436.531 278.556 436.531 269.496C436.541 260.441 443.88 253.102 452.935 253.092Z" fill="white"/>
<path d="M478.433 291.76L468.154 296.617C466.735 293.977 464.012 292.297 461.016 292.213L451.527 291.952C450.024 291.909 448.55 291.528 447.214 290.838L446.248 290.338C441.304 287.761 435.411 287.767 430.473 290.354L430.533 288.167C430.553 287.442 429.982 286.839 429.257 286.819L418.852 286.532C418.127 286.513 417.524 287.084 417.504 287.808L416.876 310.643C416.856 311.367 417.427 311.971 418.151 311.991L428.557 312.277H428.593C429.304 312.277 429.886 311.712 429.905 311.001L429.935 309.909L432.638 308.461C433.699 307.89 434.94 307.754 436.099 308.082L452.242 312.613C452.27 312.621 452.298 312.628 452.327 312.634C453.494 312.878 454.683 313.001 455.875 313C458.399 313.001 460.894 312.457 463.189 311.404C463.245 311.378 463.3 311.348 463.351 311.314L486.757 296.175C487.34 295.798 487.528 295.032 487.187 294.427C485.449 291.344 481.595 290.169 478.433 291.76V291.76ZM419.535 309.404L420.091 289.192L427.873 289.406L427.317 309.618L419.535 309.404ZM462.007 309.06C459.156 310.347 455.972 310.702 452.908 310.076L436.809 305.557C434.997 305.045 433.057 305.257 431.4 306.148L430.018 306.888L430.388 293.45C434.766 290.538 440.38 290.239 445.042 292.668L446.007 293.169C447.695 294.04 449.556 294.521 451.455 294.576L460.945 294.836C463.61 294.913 465.874 296.811 466.415 299.423L452.279 299.033C451.555 299.013 450.952 299.584 450.931 300.308C450.911 301.033 451.483 301.637 452.207 301.656L467.806 302.086H467.843C468.554 302.085 469.135 301.519 469.154 300.809C469.17 300.239 469.128 299.668 469.027 299.107L479.57 294.125C479.581 294.121 479.591 294.116 479.601 294.11C481.097 293.354 482.905 293.607 484.135 294.745L462.007 309.06Z" fill="white"/>
<path d="M454.248 246.778V234.312C454.248 233.588 453.66 233 452.935 233C452.211 233 451.623 233.588 451.623 234.312V246.778C451.623 247.503 452.211 248.091 452.935 248.091C453.66 248.091 454.248 247.503 454.248 246.778Z" fill="white"/>
<path d="M464.089 246.779V240.874C464.089 240.149 463.502 239.561 462.777 239.561C462.052 239.561 461.465 240.149 461.465 240.874V246.779C461.465 247.503 462.052 248.091 462.777 248.091C463.502 248.091 464.089 247.503 464.089 246.779Z" fill="white"/>
<path d="M444.406 246.779V240.874C444.406 240.149 443.818 239.561 443.093 239.561C442.369 239.561 441.781 240.149 441.781 240.874V246.779C441.781 247.503 442.369 248.091 443.093 248.091C443.818 248.091 444.406 247.503 444.406 246.779Z" fill="white"/>
</g>
<defs>
<filter id="filter0_ddddii" x="0" y="-179" width="950" height="950" filterUnits="userSpaceOnUse" color-interpolation-filters="sRGB">
<feFlood flood-opacity="0" result="BackgroundImageFix"/>
<feColorMatrix in="SourceAlpha" type="matrix" values="0 0 0 0 0 0 0 0 0 0 0 0 0 0 0 0 0 0 127 0" result="hardAlpha"/>
<feOffset dx="100" dy="100"/>
<feGaussianBlur stdDeviation="125"/>
<feColorMatrix type="matrix" values="0 0 0 0 0.929412 0 0 0 0 0.929412 0 0 0 0 0.929412 0 0 0 0.9 0"/>
<feBlend mode="normal" in2="BackgroundImageFix" result="effect1_dropShadow"/>
<feColorMatrix in="SourceAlpha" type="matrix" values="0 0 0 0 0 0 0 0 0 0 0 0 0 0 0 0 0 0 127 0" result="hardAlpha"/>
<feOffset dx="-100" dy="-100"/>
<feGaussianBlur stdDeviation="100"/>
<feColorMatrix type="matrix" values="0 0 0 0 0.984314 0 0 0 0 0.984314 0 0 0 0 0.984314 0 0 0 0.9 0"/>
<feBlend mode="normal" in2="effect1_dropShadow" result="effect2_dropShadow"/>
<feColorMatrix in="SourceAlpha" type="matrix" values="0 0 0 0 0 0 0 0 0 0 0 0 0 0 0 0 0 0 127 0" result="hardAlpha"/>
<feOffset dx="100" dy="-100"/>
<feGaussianBlur stdDeviation="100"/>
<feColorMatrix type="matrix" values="0 0 0 0 0.929412 0 0 0 0 0.929412 0 0 0 0 0.929412 0 0 0 0.2 0"/>
<feBlend mode="normal" in2="effect2_dropShadow" result="effect3_dropShadow"/>
<feColorMatrix in="SourceAlpha" type="matrix" values="0 0 0 0 0 0 0 0 0 0 0 0 0 0 0 0 0 0 127 0" result="hardAlpha"/>
<feOffset dx="-100" dy="100"/>
<feGaussianBlur stdDeviation="100"/>
<feColorMatrix type="matrix" values="0 0 0 0 0.929412 0 0 0 0 0.929412 0 0 0 0 0.929412 0 0 0 0.2 0"/>
<feBlend mode="normal" in2="effect3_dropShadow" result="effect4_dropShadow"/>
<feBlend mode="normal" in="SourceGraphic" in2="effect4_dropShadow" result="shape"/>
<feColorMatrix in="SourceAlpha" type="matrix" values="0 0 0 0 0 0 0 0 0 0 0 0 0 0 0 0 0 0 127 0" result="hardAlpha"/>
<feOffset dx="-4" dy="-4"/>
<feGaussianBlur stdDeviation="2.5"/>
<feComposite in2="hardAlpha" operator="arithmetic" k2="-1" k3="1"/>
<feColorMatrix type="matrix" values="0 0 0 0 0.929412 0 0 0 0 0.929412 0 0 0 0 0.929412 0 0 0 0.5 0"/>
<feBlend mode="normal" in2="shape" result="effect5_innerShadow"/>
<feColorMatrix in="SourceAlpha" type="matrix" values="0 0 0 0 0 0 0 0 0 0 0 0 0 0 0 0 0 0 127 0" result="hardAlpha"/>
<feOffset dx="4" dy="4"/>
<feGaussianBlur stdDeviation="2.5"/>
<feComposite in2="hardAlpha" operator="arithmetic" k2="-1" k3="1"/>
<feColorMatrix type="matrix" values="0 0 0 0 0.984314 0 0 0 0 0.984314 0 0 0 0 0.984314 0 0 0 0.3 0"/>
<feBlend mode="normal" in2="effect5_innerShadow" result="effect6_innerShadow"/>
</filter>
<clipPath id="clip0">
<rect width="80" height="80" fill="white" transform="translate(412 233)"/>
</clipPath>
</defs>
</svg>
